<svg width="1300" height="393" viewBox="0 0 1300 393" fill="none" xmlns="http://www.w3.org/2000/svg">
<g clip-path="url(#clip0_764_2052)">
<path d="M698.795 347.821L703.546 347.821L703.546 322.637L713.175 322.637L713.175 318.39L689.126 318.39L689.126 322.637L698.797 322.637L698.797 347.821L698.795 347.821ZM764.235 343.197L747.209 343.197L747.209 335.293L763.437 335.293L763.437 330.92L747.209 330.92L747.209 322.974L764.11 322.974L764.11 318.392L742.499 318.392L742.499 347.823L764.235 347.823L764.235 343.199L764.235 343.197ZM816.432 340.8C815.423 341.81 814.217 342.594 812.818 343.154C811.416 343.715 810.015 343.995 808.613 343.995C805.054 343.995 802.363 342.95 800.54 340.863C798.717 338.776 797.792 336.245 797.765 333.274C797.735 330.303 798.661 327.739 800.54 325.579C802.418 323.421 805.109 322.341 808.613 322.341C811.64 322.341 814.178 323.35 816.224 325.367L819.378 322.341C816.406 319.37 812.82 317.884 808.615 317.884C806.093 317.884 803.815 318.319 801.785 319.187C799.752 320.056 798.12 321.226 796.885 322.698C795.652 324.17 794.713 325.808 794.068 327.617C793.423 329.424 793.102 331.324 793.102 333.313C793.102 335.304 793.418 337.182 794.049 338.946C794.68 340.712 795.611 342.311 796.844 343.74C798.077 345.169 799.703 346.306 801.72 347.145C803.739 347.986 806.036 348.407 808.615 348.407C813.045 348.407 816.73 346.949 819.674 344.034L816.436 340.796L816.432 340.8ZM874.307 347.821L874.307 318.39L869.64 318.39L869.64 331.214L854.084 331.214L854.084 318.39L849.374 318.39L849.374 347.821L854.084 347.821L854.084 335.587L869.64 335.587L869.64 347.821L874.307 347.821ZM910.234 318.39L906.617 318.39L906.617 347.821L911.368 347.821L911.368 327.051L928.06 347.821L931.633 347.821L931.633 318.39L926.923 318.39L926.923 339.328L910.232 318.39L910.234 318.39ZM977.273 317.843C972.846 317.843 969.216 319.293 966.384 322.194C963.553 325.095 962.136 328.787 962.136 333.272C962.136 335.261 962.452 337.147 963.083 338.927C963.714 340.706 964.626 342.311 965.815 343.74C967.005 345.169 968.583 346.312 970.545 347.166C972.507 348.021 974.722 348.448 977.187 348.448C979.655 348.448 981.868 348.035 983.83 347.208C985.792 346.38 987.369 345.253 988.559 343.823C989.749 342.394 990.66 340.775 991.291 338.966C991.923 337.159 992.238 335.246 992.238 333.227C992.238 328.966 990.935 325.344 988.328 322.359C985.721 319.374 982.034 317.866 977.27 317.839L977.273 317.843ZM966.805 333.315C966.805 330.009 967.724 327.317 969.559 325.242C971.395 323.168 973.967 322.131 977.273 322.131C979.543 322.159 981.485 322.741 983.097 323.876C984.708 325.011 985.858 326.392 986.544 328.017C987.23 329.644 987.575 331.41 987.575 333.315C987.575 336.4 986.707 338.97 984.968 341.03C983.23 343.09 980.639 344.121 977.189 344.121C975.451 344.121 973.902 343.805 972.544 343.174C971.184 342.543 970.098 341.704 969.284 340.651C968.471 339.601 967.861 338.452 967.456 337.204C967.05 335.957 966.833 334.66 966.803 333.315L966.805 333.315ZM1022.75 318.39L1022.75 347.821L1042.97 347.821L1042.97 343.448L1027.46 343.448L1027.46 318.39L1022.75 318.39ZM1084.95 317.843C1080.52 317.843 1076.89 319.293 1074.06 322.194C1071.23 325.095 1069.81 328.787 1069.81 333.272C1069.81 335.261 1070.13 337.147 1070.76 338.927C1071.39 340.706 1072.3 342.311 1073.49 343.74C1074.68 345.169 1076.26 346.312 1078.22 347.166C1080.18 348.021 1082.4 348.448 1084.86 348.448C1087.33 348.448 1089.54 348.035 1091.51 347.208C1093.47 346.38 1095.05 345.253 1096.24 343.823C1097.43 342.394 1098.34 340.775 1098.97 338.966C1099.6 337.159 1099.91 335.246 1099.91 333.227C1099.91 328.966 1098.61 325.344 1096 322.359C1093.4 319.374 1089.71 317.866 1084.95 317.839L1084.95 317.843ZM1074.48 333.315C1074.48 330.009 1075.4 327.317 1077.24 325.242C1079.07 323.168 1081.64 322.131 1084.95 322.131C1087.22 322.159 1089.16 322.741 1090.77 323.876C1092.38 325.011 1093.53 326.392 1094.22 328.017C1094.91 329.644 1095.25 331.41 1095.25 333.315C1095.25 336.4 1094.38 338.97 1092.64 341.03C1090.91 343.09 1088.32 344.121 1084.87 344.121C1083.13 344.121 1081.58 343.805 1080.22 343.174C1078.86 342.543 1077.77 341.704 1076.96 340.651C1076.15 339.601 1075.54 338.452 1075.13 337.204C1074.73 335.957 1074.51 334.66 1074.48 333.315L1074.48 333.315ZM1154.97 322.131C1151.98 319.16 1148.35 317.674 1144.09 317.674C1139.27 317.674 1135.48 319.181 1132.73 322.194C1129.99 325.207 1128.61 328.942 1128.61 333.399C1128.61 335.418 1128.92 337.302 1129.54 339.054C1130.16 340.806 1131.07 342.39 1132.27 343.805C1133.48 345.22 1135.09 346.341 1137.13 347.168C1139.16 347.995 1141.48 348.409 1144.09 348.409C1148.68 348.409 1152.54 346.7 1155.65 343.28L1155.65 331.212L1143.08 331.212L1143.08 335.416L1151.27 335.416L1151.27 341.386C1149.2 343.125 1146.8 343.993 1144.09 343.993C1140.5 343.993 1137.79 342.97 1135.97 340.924C1134.15 338.878 1133.24 336.369 1133.24 333.397C1133.21 330.175 1134.18 327.468 1136.14 325.283C1138.1 323.098 1140.75 322.004 1144.09 322.004C1145.49 322.004 1146.91 322.276 1148.35 322.823C1149.8 323.37 1151.02 324.148 1152.03 325.158L1154.98 322.131L1154.97 322.131ZM1191.24 347.819L1191.24 318.388L1186.57 318.388L1186.57 347.819L1191.24 347.819ZM1245.29 343.195L1228.26 343.195L1228.26 335.291L1244.49 335.291L1244.49 330.918L1228.26 330.918L1228.26 322.972L1245.16 322.972L1245.16 318.39L1223.55 318.39L1223.55 347.821L1245.29 347.821L1245.29 343.197L1245.29 343.195ZM1297.4 322.51C1295.33 319.203 1291.67 317.549 1286.43 317.549C1285.03 317.549 1283.68 317.711 1282.39 318.033C1281.1 318.356 1279.9 318.838 1278.78 319.483C1277.66 320.128 1276.76 321.012 1276.09 322.133C1275.41 323.254 1275.08 324.544 1275.08 326C1275.08 327.206 1275.3 328.278 1275.73 329.217C1276.17 330.156 1276.71 330.92 1277.37 331.508C1278.03 332.096 1278.89 332.6 1279.96 333.021C1281.02 333.442 1282.04 333.764 1283 333.987C1283.97 334.213 1285.13 334.409 1286.47 334.575C1288.83 334.883 1290.67 335.395 1292 336.11C1293.33 336.825 1294 337.925 1294 339.411C1294 340.561 1293.61 341.52 1292.84 342.29C1292.07 343.06 1291.15 343.585 1290.09 343.868C1289.02 344.148 1287.85 344.287 1286.56 344.287C1282.35 344.287 1279.3 342.676 1277.39 339.452L1273.86 341.806C1276.27 346.263 1280.49 348.491 1286.51 348.491C1288.7 348.491 1290.67 348.205 1292.42 347.629C1294.17 347.055 1295.66 346.067 1296.88 344.665C1298.1 343.264 1298.71 341.512 1298.71 339.411C1298.71 337.841 1298.39 336.488 1297.76 335.353C1297.13 334.219 1296.21 333.321 1295.01 332.662C1293.8 332.004 1292.58 331.506 1291.35 331.171C1290.12 330.834 1288.63 330.54 1286.89 330.289C1284.57 329.952 1282.79 329.489 1281.58 328.901C1280.36 328.313 1279.75 327.374 1279.75 326.085C1279.75 324.711 1280.38 323.625 1281.64 322.825C1282.9 322.027 1284.54 321.628 1286.56 321.628C1288.1 321.655 1289.52 321.957 1290.82 322.531C1292.13 323.105 1293.13 323.897 1293.83 324.907L1297.4 322.51L1297.4 322.51Z" fill="url(#paint0_linear_764_2052)"/>
<mask id="path-2-inside-1_764_2052" fill="white">
<path fill-rule="evenodd" clip-rule="evenodd" d="M1196.99 166.614C1197.6 166.443 1198.22 166.293 1198.84 166.155L1198.84 194.105C1198.84 198.503 1202.44 202.102 1206.84 202.102L1206.84 202.102C1211.24 202.102 1214.84 198.503 1214.84 194.105L1214.84 166.216C1227.62 169.133 1238.43 178.811 1242.13 192.341C1247.5 211.913 1235.98 232.125 1216.41 237.488C1196.84 242.85 1176.62 231.331 1171.26 211.761C1165.9 192.19 1177.42 171.977 1196.99 166.614L1196.99 166.614ZM18.2748 113.175L149.822 113.175C153.221 113.175 156.323 114.068 159.128 115.852C161.933 117.638 164.014 120.058 165.375 123.118C166.735 126.177 167.201 129.364 166.778 132.679C166.353 135.993 165.036 138.925 162.825 141.475L60.8499 257.725L154.922 257.725C159.681 257.725 163.717 259.383 167.031 262.697C170.345 266.011 172.003 270.047 172.003 274.806C172.003 279.565 170.347 283.601 167.031 286.915C163.717 290.229 159.681 291.885 154.922 291.885L23.1199 291.885C19.7193 291.885 16.6186 290.994 13.8158 289.208C11.011 287.424 8.92947 285.002 7.56923 281.942C6.20899 278.883 5.74252 275.696 6.16784 272.381C6.59316 269.067 7.99456 266.135 10.374 263.585L112.349 147.333L18.2767 147.333C13.5178 147.333 9.48219 145.675 6.16783 142.361C2.85347 139.047 1.19531 135.011 1.19531 130.252C1.19531 125.493 2.85151 121.458 6.16783 118.143C9.48219 114.829 13.5178 113.171 18.2767 113.171L18.2748 113.175ZM233.479 238.605L233.479 166.457C233.479 158.98 234.88 152.012 237.685 145.552C240.49 139.094 244.271 133.484 249.029 128.725C253.788 123.966 259.439 120.185 265.983 117.381C272.526 114.576 279.453 113.175 286.761 113.175L345.652 113.175C353.129 113.175 360.097 114.576 366.557 117.381C373.015 120.185 378.666 124.009 383.511 128.853C388.354 133.698 392.178 139.348 394.983 145.807C397.788 152.265 399.189 159.233 399.189 166.712L399.189 170.791C399.189 178.268 397.788 185.236 394.983 191.696C392.178 198.154 388.354 203.805 383.511 208.648C378.668 213.493 373.015 217.315 366.557 220.122C360.099 222.927 353.131 224.328 345.652 224.328L267.64 224.328L267.64 238.605C267.64 243.873 269.51 248.377 273.249 252.115C276.989 255.855 281.493 257.723 286.761 257.723L381.598 257.723C386.357 257.723 390.393 259.381 393.707 262.695C397.021 266.01 398.677 270.045 398.677 274.804C398.677 279.563 397.021 283.599 393.707 286.913C390.393 290.227 386.357 291.883 381.598 291.883L286.761 291.883C279.453 291.883 272.526 290.482 265.983 287.677C259.439 284.873 253.788 281.092 249.029 276.333C244.271 271.574 240.49 265.923 237.685 259.379C234.88 252.836 233.479 245.91 233.479 238.603L233.479 238.605ZM267.64 166.457L267.64 190.167L345.652 190.167C351.091 190.167 355.681 188.297 359.419 184.558C363.158 180.818 365.026 176.23 365.026 170.791L365.026 166.712C365.026 161.273 363.158 156.683 359.419 152.945C355.681 149.205 351.091 147.337 345.652 147.337L286.761 147.337C281.493 147.337 276.989 149.164 273.249 152.818C269.511 156.473 267.64 161.018 267.64 166.457ZM481.444 257.725L574.752 257.725C580.021 257.725 584.483 255.898 588.137 252.244C591.792 248.591 593.617 244.046 593.617 238.607C593.617 233.336 591.79 228.875 588.137 225.222C584.483 221.567 580.021 219.74 574.752 219.74L517.647 219.74C510.339 219.74 503.455 218.338 496.997 215.534C490.539 212.729 484.888 208.905 480.043 204.06C475.2 199.217 471.376 193.566 468.571 187.106C465.766 180.648 464.365 173.764 464.365 166.455C464.365 159.148 465.766 152.263 468.571 145.805C471.376 139.346 475.2 133.696 480.043 128.851C484.886 124.007 490.537 120.184 496.997 117.379C503.455 114.574 510.339 113.173 517.647 113.173L610.698 113.173C615.457 113.173 619.495 114.829 622.809 118.145C626.124 121.459 627.782 125.495 627.782 130.254C627.782 135.013 626.124 139.049 622.809 142.363C619.495 145.677 615.457 147.335 610.698 147.335L517.647 147.335C512.208 147.335 507.663 149.205 504.008 152.943C500.354 156.681 498.528 161.187 498.528 166.455C498.528 171.724 500.354 176.228 504.008 179.967C507.663 183.705 512.208 185.575 517.647 185.575L574.752 185.575C582.061 185.575 588.944 186.978 595.403 189.783C601.861 192.586 607.47 196.367 612.229 201.126C616.988 205.885 620.769 211.494 623.574 217.952C626.378 224.41 627.78 231.294 627.78 238.603C627.78 245.91 626.42 252.793 623.701 259.251C620.983 265.71 617.2 271.36 612.357 276.205C607.513 281.051 601.904 284.873 595.53 287.677C589.156 290.482 582.231 291.883 574.752 291.883L481.444 291.883C476.685 291.883 472.648 290.227 469.335 286.913C466.021 283.599 464.363 279.563 464.363 274.804C464.363 270.045 466.021 266.01 469.335 262.695C472.65 259.381 476.685 257.723 481.444 257.723L481.444 257.725ZM685.943 274.806L685.943 130.256C685.943 125.497 687.601 121.461 690.915 118.147C694.23 114.833 698.265 113.175 703.024 113.175L776.191 113.175C788.598 113.175 800.24 115.513 811.118 120.185C821.996 124.86 831.471 131.275 839.544 139.433C847.617 147.59 853.989 157.067 858.664 167.859C863.339 178.65 865.675 190.165 865.675 202.404C865.675 214.64 863.339 226.198 858.664 237.076C853.989 247.952 847.659 257.472 839.672 265.627C831.683 273.785 822.249 280.202 811.373 284.875C800.495 289.549 788.768 291.885 776.191 291.885L703.024 291.885C698.265 291.885 694.23 290.229 690.915 286.915C687.601 283.601 685.943 279.565 685.943 274.806ZM720.106 147.337L720.106 257.725L776.193 257.725C783.841 257.725 791.064 256.28 797.863 253.391C804.66 250.502 810.524 246.592 815.452 241.664C820.381 236.735 824.289 230.873 827.178 224.073C830.069 217.274 831.512 210.051 831.512 202.404C831.512 194.756 830.067 187.574 827.178 180.861C824.289 174.148 820.338 168.284 815.324 163.27C810.311 158.257 804.446 154.348 797.733 151.544C791.018 148.739 783.839 147.337 776.191 147.337L720.104 147.337L720.106 147.337ZM988.722 113.175L1059.08 113.175C1063.84 113.175 1067.88 114.831 1071.19 118.147C1074.51 121.461 1076.17 125.497 1076.17 130.256C1076.17 135.015 1074.51 139.05 1071.19 142.365C1067.88 145.679 1063.84 147.337 1059.08 147.337L988.722 147.337C983.283 147.337 978.651 149.25 974.827 153.072C971.003 156.896 969.09 161.528 969.09 166.967L969.09 274.806C969.09 279.565 967.434 283.601 964.12 286.915C960.805 290.229 956.768 291.885 952.011 291.885C947.252 291.885 943.216 290.229 939.902 286.915C936.588 283.601 934.929 279.565 934.929 274.806L934.929 166.967C934.929 159.489 936.331 152.522 939.136 146.061C941.94 139.603 945.807 133.909 950.737 128.98C955.664 124.051 961.401 120.184 967.946 117.379C974.488 114.574 981.415 113.173 988.724 113.173L988.722 113.175ZM1182.18 112.569C1203.78 106.65 1225.69 108.878 1244.64 117.385C1247.8 118.804 1252.56 120.764 1254.91 123.167C1256.47 124.756 1257.66 126.753 1258.28 129.051C1260.26 136.254 1256.02 143.692 1248.82 145.664C1245.59 146.547 1242.32 146.187 1239.51 144.868C1238.17 144.241 1236.6 143.196 1235.11 142.482C1221.31 135.891 1205.17 134.039 1189.26 138.398C1154.11 148.029 1133.42 184.336 1143.05 219.491C1152.69 254.643 1188.99 275.331 1224.15 265.7C1258.13 256.388 1278.59 222.147 1271.21 188.117L1271.23 188.105C1271.02 187.594 1270.84 187.063 1270.69 186.516C1268.71 179.313 1272.95 171.875 1280.16 169.901C1287.36 167.927 1294.8 172.167 1296.77 179.368C1297.16 180.783 1297.42 182.553 1297.71 184.027C1307.13 231.343 1278.48 278.581 1231.22 291.531C1181.81 305.072 1130.76 275.99 1117.22 226.57C1103.68 177.151 1132.77 126.111 1182.19 112.569L1182.18 112.569ZM1264.39 143.784C1271.07 141.955 1277.96 145.883 1279.79 152.557C1281.62 159.233 1277.69 166.126 1271.01 167.955C1264.34 169.783 1257.44 165.855 1255.61 159.182C1253.79 152.506 1257.71 145.613 1264.39 143.784Z"/>
</mask>
<g filter="url(#filter0_i_764_2052)">
<path fill-rule="evenodd" clip-rule="evenodd" d="M1196.99 166.614C1197.6 166.443 1198.22 166.293 1198.84 166.155L1198.84 194.105C1198.84 198.503 1202.44 202.102 1206.84 202.102L1206.84 202.102C1211.24 202.102 1214.84 198.503 1214.84 194.105L1214.84 166.216C1227.62 169.133 1238.43 178.811 1242.13 192.341C1247.5 211.913 1235.98 232.125 1216.41 237.488C1196.84 242.85 1176.62 231.331 1171.26 211.761C1165.9 192.19 1177.42 171.977 1196.99 166.614L1196.99 166.614ZM18.2748 113.175L149.822 113.175C153.221 113.175 156.323 114.068 159.128 115.852C161.933 117.638 164.014 120.058 165.375 123.118C166.735 126.177 167.201 129.364 166.778 132.679C166.353 135.993 165.036 138.925 162.825 141.475L60.8499 257.725L154.922 257.725C159.681 257.725 163.717 259.383 167.031 262.697C170.345 266.011 172.003 270.047 172.003 274.806C172.003 279.565 170.347 283.601 167.031 286.915C163.717 290.229 159.681 291.885 154.922 291.885L23.1199 291.885C19.7193 291.885 16.6186 290.994 13.8158 289.208C11.011 287.424 8.92947 285.002 7.56923 281.942C6.20899 278.883 5.74252 275.696 6.16784 272.381C6.59316 269.067 7.99456 266.135 10.374 263.585L112.349 147.333L18.2767 147.333C13.5178 147.333 9.48219 145.675 6.16783 142.361C2.85347 139.047 1.19531 135.011 1.19531 130.252C1.19531 125.493 2.85151 121.458 6.16783 118.143C9.48219 114.829 13.5178 113.171 18.2767 113.171L18.2748 113.175ZM233.479 238.605L233.479 166.457C233.479 158.98 234.88 152.012 237.685 145.552C240.49 139.094 244.271 133.484 249.029 128.725C253.788 123.966 259.439 120.185 265.983 117.381C272.526 114.576 279.453 113.175 286.761 113.175L345.652 113.175C353.129 113.175 360.097 114.576 366.557 117.381C373.015 120.185 378.666 124.009 383.511 128.853C388.354 133.698 392.178 139.348 394.983 145.807C397.788 152.265 399.189 159.233 399.189 166.712L399.189 170.791C399.189 178.268 397.788 185.236 394.983 191.696C392.178 198.154 388.354 203.805 383.511 208.648C378.668 213.493 373.015 217.315 366.557 220.122C360.099 222.927 353.131 224.328 345.652 224.328L267.64 224.328L267.64 238.605C267.64 243.873 269.51 248.377 273.249 252.115C276.989 255.855 281.493 257.723 286.761 257.723L381.598 257.723C386.357 257.723 390.393 259.381 393.707 262.695C397.021 266.01 398.677 270.045 398.677 274.804C398.677 279.563 397.021 283.599 393.707 286.913C390.393 290.227 386.357 291.883 381.598 291.883L286.761 291.883C279.453 291.883 272.526 290.482 265.983 287.677C259.439 284.873 253.788 281.092 249.029 276.333C244.271 271.574 240.49 265.923 237.685 259.379C234.88 252.836 233.479 245.91 233.479 238.603L233.479 238.605ZM267.64 166.457L267.64 190.167L345.652 190.167C351.091 190.167 355.681 188.297 359.419 184.558C363.158 180.818 365.026 176.23 365.026 170.791L365.026 166.712C365.026 161.273 363.158 156.683 359.419 152.945C355.681 149.205 351.091 147.337 345.652 147.337L286.761 147.337C281.493 147.337 276.989 149.164 273.249 152.818C269.511 156.473 267.64 161.018 267.64 166.457ZM481.444 257.725L574.752 257.725C580.021 257.725 584.483 255.898 588.137 252.244C591.792 248.591 593.617 244.046 593.617 238.607C593.617 233.336 591.79 228.875 588.137 225.222C584.483 221.567 580.021 219.74 574.752 219.74L517.647 219.74C510.339 219.74 503.455 218.338 496.997 215.534C490.539 212.729 484.888 208.905 480.043 204.06C475.2 199.217 471.376 193.566 468.571 187.106C465.766 180.648 464.365 173.764 464.365 166.455C464.365 159.148 465.766 152.263 468.571 145.805C471.376 139.346 475.2 133.696 480.043 128.851C484.886 124.007 490.537 120.184 496.997 117.379C503.455 114.574 510.339 113.173 517.647 113.173L610.698 113.173C615.457 113.173 619.495 114.829 622.809 118.145C626.124 121.459 627.782 125.495 627.782 130.254C627.782 135.013 626.124 139.049 622.809 142.363C619.495 145.677 615.457 147.335 610.698 147.335L517.647 147.335C512.208 147.335 507.663 149.205 504.008 152.943C500.354 156.681 498.528 161.187 498.528 166.455C498.528 171.724 500.354 176.228 504.008 179.967C507.663 183.705 512.208 185.575 517.647 185.575L574.752 185.575C582.061 185.575 588.944 186.978 595.403 189.783C601.861 192.586 607.47 196.367 612.229 201.126C616.988 205.885 620.769 211.494 623.574 217.952C626.378 224.41 627.78 231.294 627.78 238.603C627.78 245.91 626.42 252.793 623.701 259.251C620.983 265.71 617.2 271.36 612.357 276.205C607.513 281.051 601.904 284.873 595.53 287.677C589.156 290.482 582.231 291.883 574.752 291.883L481.444 291.883C476.685 291.883 472.648 290.227 469.335 286.913C466.021 283.599 464.363 279.563 464.363 274.804C464.363 270.045 466.021 266.01 469.335 262.695C472.65 259.381 476.685 257.723 481.444 257.723L481.444 257.725ZM685.943 274.806L685.943 130.256C685.943 125.497 687.601 121.461 690.915 118.147C694.23 114.833 698.265 113.175 703.024 113.175L776.191 113.175C788.598 113.175 800.24 115.513 811.118 120.185C821.996 124.86 831.471 131.275 839.544 139.433C847.617 147.59 853.989 157.067 858.664 167.859C863.339 178.65 865.675 190.165 865.675 202.404C865.675 214.64 863.339 226.198 858.664 237.076C853.989 247.952 847.659 257.472 839.672 265.627C831.683 273.785 822.249 280.202 811.373 284.875C800.495 289.549 788.768 291.885 776.191 291.885L703.024 291.885C698.265 291.885 694.23 290.229 690.915 286.915C687.601 283.601 685.943 279.565 685.943 274.806ZM720.106 147.337L720.106 257.725L776.193 257.725C783.841 257.725 791.064 256.28 797.863 253.391C804.66 250.502 810.524 246.592 815.452 241.664C820.381 236.735 824.289 230.873 827.178 224.073C830.069 217.274 831.512 210.051 831.512 202.404C831.512 194.756 830.067 187.574 827.178 180.861C824.289 174.148 820.338 168.284 815.324 163.27C810.311 158.257 804.446 154.348 797.733 151.544C791.018 148.739 783.839 147.337 776.191 147.337L720.104 147.337L720.106 147.337ZM988.722 113.175L1059.08 113.175C1063.84 113.175 1067.88 114.831 1071.19 118.147C1074.51 121.461 1076.17 125.497 1076.17 130.256C1076.17 135.015 1074.51 139.05 1071.19 142.365C1067.88 145.679 1063.84 147.337 1059.08 147.337L988.722 147.337C983.283 147.337 978.651 149.25 974.827 153.072C971.003 156.896 969.09 161.528 969.09 166.967L969.09 274.806C969.09 279.565 967.434 283.601 964.12 286.915C960.805 290.229 956.768 291.885 952.011 291.885C947.252 291.885 943.216 290.229 939.902 286.915C936.588 283.601 934.929 279.565 934.929 274.806L934.929 166.967C934.929 159.489 936.331 152.522 939.136 146.061C941.94 139.603 945.807 133.909 950.737 128.98C955.664 124.051 961.401 120.184 967.946 117.379C974.488 114.574 981.415 113.173 988.724 113.173L988.722 113.175ZM1182.18 112.569C1203.78 106.65 1225.69 108.878 1244.64 117.385C1247.8 118.804 1252.56 120.764 1254.91 123.167C1256.47 124.756 1257.66 126.753 1258.28 129.051C1260.26 136.254 1256.02 143.692 1248.82 145.664C1245.59 146.547 1242.32 146.187 1239.51 144.868C1238.17 144.241 1236.6 143.196 1235.11 142.482C1221.31 135.891 1205.17 134.039 1189.26 138.398C1154.11 148.029 1133.42 184.336 1143.05 219.491C1152.69 254.643 1188.99 275.331 1224.15 265.7C1258.13 256.388 1278.59 222.147 1271.21 188.117L1271.23 188.105C1271.02 187.594 1270.84 187.063 1270.69 186.516C1268.71 179.313 1272.95 171.875 1280.16 169.901C1287.36 167.927 1294.8 172.167 1296.77 179.368C1297.16 180.783 1297.42 182.553 1297.71 184.027C1307.13 231.343 1278.48 278.581 1231.22 291.531C1181.81 305.072 1130.76 275.99 1117.22 226.57C1103.68 177.151 1132.77 126.111 1182.19 112.569L1182.18 112.569ZM1264.39 143.784C1271.07 141.955 1277.96 145.883 1279.79 152.557C1281.62 159.233 1277.69 166.126 1271.01 167.955C1264.34 169.783 1257.44 165.855 1255.61 159.182C1253.79 152.506 1257.71 145.613 1264.39 143.784Z" fill="#2C1758" fill-opacity="0.7"/>
</g>
<path fill-rule="evenodd" clip-rule="evenodd" d="M1196.99 166.614C1197.6 166.443 1198.22 166.293 1198.84 166.155L1198.84 194.105C1198.84 198.503 1202.44 202.102 1206.84 202.102L1206.84 202.102C1211.24 202.102 1214.84 198.503 1214.84 194.105L1214.84 166.216C1227.62 169.133 1238.43 178.811 1242.13 192.341C1247.5 211.913 1235.98 232.125 1216.41 237.488C1196.84 242.85 1176.62 231.331 1171.26 211.761C1165.9 192.19 1177.42 171.977 1196.99 166.614L1196.99 166.614ZM18.2748 113.175L149.822 113.175C153.221 113.175 156.323 114.068 159.128 115.852C161.933 117.638 164.014 120.058 165.375 123.118C166.735 126.177 167.201 129.364 166.778 132.679C166.353 135.993 165.036 138.925 162.825 141.475L60.8499 257.725L154.922 257.725C159.681 257.725 163.717 259.383 167.031 262.697C170.345 266.011 172.003 270.047 172.003 274.806C172.003 279.565 170.347 283.601 167.031 286.915C163.717 290.229 159.681 291.885 154.922 291.885L23.1199 291.885C19.7193 291.885 16.6186 290.994 13.8158 289.208C11.011 287.424 8.92947 285.002 7.56923 281.942C6.20899 278.883 5.74252 275.696 6.16784 272.381C6.59316 269.067 7.99456 266.135 10.374 263.585L112.349 147.333L18.2767 147.333C13.5178 147.333 9.48219 145.675 6.16783 142.361C2.85347 139.047 1.19531 135.011 1.19531 130.252C1.19531 125.493 2.85151 121.458 6.16783 118.143C9.48219 114.829 13.5178 113.171 18.2767 113.171L18.2748 113.175ZM233.479 238.605L233.479 166.457C233.479 158.98 234.88 152.012 237.685 145.552C240.49 139.094 244.271 133.484 249.029 128.725C253.788 123.966 259.439 120.185 265.983 117.381C272.526 114.576 279.453 113.175 286.761 113.175L345.652 113.175C353.129 113.175 360.097 114.576 366.557 117.381C373.015 120.185 378.666 124.009 383.511 128.853C388.354 133.698 392.178 139.348 394.983 145.807C397.788 152.265 399.189 159.233 399.189 166.712L399.189 170.791C399.189 178.268 397.788 185.236 394.983 191.696C392.178 198.154 388.354 203.805 383.511 208.648C378.668 213.493 373.015 217.315 366.557 220.122C360.099 222.927 353.131 224.328 345.652 224.328L267.64 224.328L267.64 238.605C267.64 243.873 269.51 248.377 273.249 252.115C276.989 255.855 281.493 257.723 286.761 257.723L381.598 257.723C386.357 257.723 390.393 259.381 393.707 262.695C397.021 266.01 398.677 270.045 398.677 274.804C398.677 279.563 397.021 283.599 393.707 286.913C390.393 290.227 386.357 291.883 381.598 291.883L286.761 291.883C279.453 291.883 272.526 290.482 265.983 287.677C259.439 284.873 253.788 281.092 249.029 276.333C244.271 271.574 240.49 265.923 237.685 259.379C234.88 252.836 233.479 245.91 233.479 238.603L233.479 238.605ZM267.64 166.457L267.64 190.167L345.652 190.167C351.091 190.167 355.681 188.297 359.419 184.558C363.158 180.818 365.026 176.23 365.026 170.791L365.026 166.712C365.026 161.273 363.158 156.683 359.419 152.945C355.681 149.205 351.091 147.337 345.652 147.337L286.761 147.337C281.493 147.337 276.989 149.164 273.249 152.818C269.511 156.473 267.64 161.018 267.64 166.457ZM481.444 257.725L574.752 257.725C580.021 257.725 584.483 255.898 588.137 252.244C591.792 248.591 593.617 244.046 593.617 238.607C593.617 233.336 591.79 228.875 588.137 225.222C584.483 221.567 580.021 219.74 574.752 219.74L517.647 219.74C510.339 219.74 503.455 218.338 496.997 215.534C490.539 212.729 484.888 208.905 480.043 204.06C475.2 199.217 471.376 193.566 468.571 187.106C465.766 180.648 464.365 173.764 464.365 166.455C464.365 159.148 465.766 152.263 468.571 145.805C471.376 139.346 475.2 133.696 480.043 128.851C484.886 124.007 490.537 120.184 496.997 117.379C503.455 114.574 510.339 113.173 517.647 113.173L610.698 113.173C615.457 113.173 619.495 114.829 622.809 118.145C626.124 121.459 627.782 125.495 627.782 130.254C627.782 135.013 626.124 139.049 622.809 142.363C619.495 145.677 615.457 147.335 610.698 147.335L517.647 147.335C512.208 147.335 507.663 149.205 504.008 152.943C500.354 156.681 498.528 161.187 498.528 166.455C498.528 171.724 500.354 176.228 504.008 179.967C507.663 183.705 512.208 185.575 517.647 185.575L574.752 185.575C582.061 185.575 588.944 186.978 595.403 189.783C601.861 192.586 607.47 196.367 612.229 201.126C616.988 205.885 620.769 211.494 623.574 217.952C626.378 224.41 627.78 231.294 627.78 238.603C627.78 245.91 626.42 252.793 623.701 259.251C620.983 265.71 617.2 271.36 612.357 276.205C607.513 281.051 601.904 284.873 595.53 287.677C589.156 290.482 582.231 291.883 574.752 291.883L481.444 291.883C476.685 291.883 472.648 290.227 469.335 286.913C466.021 283.599 464.363 279.563 464.363 274.804C464.363 270.045 466.021 266.01 469.335 262.695C472.65 259.381 476.685 257.723 481.444 257.723L481.444 257.725ZM685.943 274.806L685.943 130.256C685.943 125.497 687.601 121.461 690.915 118.147C694.23 114.833 698.265 113.175 703.024 113.175L776.191 113.175C788.598 113.175 800.24 115.513 811.118 120.185C821.996 124.86 831.471 131.275 839.544 139.433C847.617 147.59 853.989 157.067 858.664 167.859C863.339 178.65 865.675 190.165 865.675 202.404C865.675 214.64 863.339 226.198 858.664 237.076C853.989 247.952 847.659 257.472 839.672 265.627C831.683 273.785 822.249 280.202 811.373 284.875C800.495 289.549 788.768 291.885 776.191 291.885L703.024 291.885C698.265 291.885 694.23 290.229 690.915 286.915C687.601 283.601 685.943 279.565 685.943 274.806ZM720.106 147.337L720.106 257.725L776.193 257.725C783.841 257.725 791.064 256.28 797.863 253.391C804.66 250.502 810.524 246.592 815.452 241.664C820.381 236.735 824.289 230.873 827.178 224.073C830.069 217.274 831.512 210.051 831.512 202.404C831.512 194.756 830.067 187.574 827.178 180.861C824.289 174.148 820.338 168.284 815.324 163.27C810.311 158.257 804.446 154.348 797.733 151.544C791.018 148.739 783.839 147.337 776.191 147.337L720.104 147.337L720.106 147.337ZM988.722 113.175L1059.08 113.175C1063.84 113.175 1067.88 114.831 1071.19 118.147C1074.51 121.461 1076.17 125.497 1076.17 130.256C1076.17 135.015 1074.51 139.05 1071.19 142.365C1067.88 145.679 1063.84 147.337 1059.08 147.337L988.722 147.337C983.283 147.337 978.651 149.25 974.827 153.072C971.003 156.896 969.09 161.528 969.09 166.967L969.09 274.806C969.09 279.565 967.434 283.601 964.12 286.915C960.805 290.229 956.768 291.885 952.011 291.885C947.252 291.885 943.216 290.229 939.902 286.915C936.588 283.601 934.929 279.565 934.929 274.806L934.929 166.967C934.929 159.489 936.331 152.522 939.136 146.061C941.94 139.603 945.807 133.909 950.737 128.98C955.664 124.051 961.401 120.184 967.946 117.379C974.488 114.574 981.415 113.173 988.724 113.173L988.722 113.175ZM1182.18 112.569C1203.78 106.65 1225.69 108.878 1244.64 117.385C1247.8 118.804 1252.56 120.764 1254.91 123.167C1256.47 124.756 1257.66 126.753 1258.28 129.051C1260.26 136.254 1256.02 143.692 1248.82 145.664C1245.59 146.547 1242.32 146.187 1239.51 144.868C1238.17 144.241 1236.6 143.196 1235.11 142.482C1221.31 135.891 1205.17 134.039 1189.26 138.398C1154.11 148.029 1133.42 184.336 1143.05 219.491C1152.69 254.643 1188.99 275.331 1224.15 265.7C1258.13 256.388 1278.59 222.147 1271.21 188.117L1271.23 188.105C1271.02 187.594 1270.84 187.063 1270.69 186.516C1268.71 179.313 1272.95 171.875 1280.16 169.901C1287.36 167.927 1294.8 172.167 1296.77 179.368C1297.16 180.783 1297.42 182.553 1297.71 184.027C1307.13 231.343 1278.48 278.581 1231.22 291.531C1181.81 305.072 1130.76 275.99 1117.22 226.57C1103.68 177.151 1132.77 126.111 1182.19 112.569L1182.18 112.569ZM1264.39 143.784C1271.07 141.955 1277.96 145.883 1279.79 152.557C1281.62 159.233 1277.69 166.126 1271.01 167.955C1264.34 169.783 1257.44 165.855 1255.61 159.182C1253.79 152.506 1257.71 145.613 1264.39 143.784Z" stroke="#9F63CF" stroke-width="2" mask="url(#path-2-inside-1_764_2052)"/>
<mask id="path-3-inside-2_764_2052" fill="white">
<path fill-rule="evenodd" clip-rule="evenodd" d="M1196.99 166.614C1197.6 166.443 1198.22 166.293 1198.84 166.155L1198.84 194.105C1198.84 198.503 1202.44 202.102 1206.84 202.102L1206.84 202.102C1211.24 202.102 1214.84 198.503 1214.84 194.105L1214.84 166.216C1227.62 169.133 1238.43 178.811 1242.13 192.341C1247.5 211.913 1235.98 232.125 1216.41 237.488C1196.84 242.85 1176.62 231.331 1171.26 211.761C1165.9 192.19 1177.42 171.977 1196.99 166.614L1196.99 166.614ZM18.2748 113.175L149.822 113.175C153.221 113.175 156.323 114.068 159.128 115.852C161.933 117.638 164.014 120.058 165.375 123.118C166.735 126.177 167.201 129.364 166.778 132.679C166.353 135.993 165.036 138.925 162.825 141.475L60.8499 257.725L154.922 257.725C159.681 257.725 163.717 259.383 167.031 262.697C170.345 266.011 172.003 270.047 172.003 274.806C172.003 279.565 170.347 283.601 167.031 286.915C163.717 290.229 159.681 291.885 154.922 291.885L23.1199 291.885C19.7193 291.885 16.6186 290.994 13.8158 289.208C11.011 287.424 8.92947 285.002 7.56923 281.942C6.20899 278.883 5.74252 275.696 6.16784 272.381C6.59316 269.067 7.99456 266.135 10.374 263.585L112.349 147.333L18.2767 147.333C13.5178 147.333 9.48219 145.675 6.16783 142.361C2.85347 139.047 1.19531 135.011 1.19531 130.252C1.19531 125.493 2.85151 121.458 6.16783 118.143C9.48219 114.829 13.5178 113.171 18.2767 113.171L18.2748 113.175ZM233.479 238.605L233.479 166.457C233.479 158.98 234.88 152.012 237.685 145.552C240.49 139.094 244.271 133.484 249.029 128.725C253.788 123.966 259.439 120.185 265.983 117.381C272.526 114.576 279.453 113.175 286.761 113.175L345.652 113.175C353.129 113.175 360.097 114.576 366.557 117.381C373.015 120.185 378.666 124.009 383.511 128.853C388.354 133.698 392.178 139.348 394.983 145.807C397.788 152.265 399.189 159.233 399.189 166.712L399.189 170.791C399.189 178.268 397.788 185.236 394.983 191.696C392.178 198.154 388.354 203.805 383.511 208.648C378.668 213.493 373.015 217.315 366.557 220.122C360.099 222.927 353.131 224.328 345.652 224.328L267.64 224.328L267.64 238.605C267.64 243.873 269.51 248.377 273.249 252.115C276.989 255.855 281.493 257.723 286.761 257.723L381.598 257.723C386.357 257.723 390.393 259.381 393.707 262.695C397.021 266.01 398.677 270.045 398.677 274.804C398.677 279.563 397.021 283.599 393.707 286.913C390.393 290.227 386.357 291.883 381.598 291.883L286.761 291.883C279.453 291.883 272.526 290.482 265.983 287.677C259.439 284.873 253.788 281.092 249.029 276.333C244.271 271.574 240.49 265.923 237.685 259.379C234.88 252.836 233.479 245.91 233.479 238.603L233.479 238.605ZM267.64 166.457L267.64 190.167L345.652 190.167C351.091 190.167 355.681 188.297 359.419 184.558C363.158 180.818 365.026 176.23 365.026 170.791L365.026 166.712C365.026 161.273 363.158 156.683 359.419 152.945C355.681 149.205 351.091 147.337 345.652 147.337L286.761 147.337C281.493 147.337 276.989 149.164 273.249 152.818C269.511 156.473 267.64 161.018 267.64 166.457ZM481.444 257.725L574.752 257.725C580.021 257.725 584.483 255.898 588.137 252.244C591.792 248.591 593.617 244.046 593.617 238.607C593.617 233.336 591.79 228.875 588.137 225.222C584.483 221.567 580.021 219.74 574.752 219.74L517.647 219.74C510.339 219.74 503.455 218.338 496.997 215.534C490.539 212.729 484.888 208.905 480.043 204.06C475.2 199.217 471.376 193.566 468.571 187.106C465.766 180.648 464.365 173.764 464.365 166.455C464.365 159.148 465.766 152.263 468.571 145.805C471.376 139.346 475.2 133.696 480.043 128.851C484.886 124.007 490.537 120.184 496.997 117.379C503.455 114.574 510.339 113.173 517.647 113.173L610.698 113.173C615.457 113.173 619.495 114.829 622.809 118.145C626.124 121.459 627.782 125.495 627.782 130.254C627.782 135.013 626.124 139.049 622.809 142.363C619.495 145.677 615.457 147.335 610.698 147.335L517.647 147.335C512.208 147.335 507.663 149.205 504.008 152.943C500.354 156.681 498.528 161.187 498.528 166.455C498.528 171.724 500.354 176.228 504.008 179.967C507.663 183.705 512.208 185.575 517.647 185.575L574.752 185.575C582.061 185.575 588.944 186.978 595.403 189.783C601.861 192.586 607.47 196.367 612.229 201.126C616.988 205.885 620.769 211.494 623.574 217.952C626.378 224.41 627.78 231.294 627.78 238.603C627.78 245.91 626.42 252.793 623.701 259.251C620.983 265.71 617.2 271.36 612.357 276.205C607.513 281.051 601.904 284.873 595.53 287.677C589.156 290.482 582.231 291.883 574.752 291.883L481.444 291.883C476.685 291.883 472.648 290.227 469.335 286.913C466.021 283.599 464.363 279.563 464.363 274.804C464.363 270.045 466.021 266.01 469.335 262.695C472.65 259.381 476.685 257.723 481.444 257.723L481.444 257.725ZM685.943 274.806L685.943 130.256C685.943 125.497 687.601 121.461 690.915 118.147C694.23 114.833 698.265 113.175 703.024 113.175L776.191 113.175C788.598 113.175 800.24 115.513 811.118 120.185C821.996 124.86 831.471 131.275 839.544 139.433C847.617 147.59 853.989 157.067 858.664 167.859C863.339 178.65 865.675 190.165 865.675 202.404C865.675 214.64 863.339 226.198 858.664 237.076C853.989 247.952 847.659 257.472 839.672 265.627C831.683 273.785 822.249 280.202 811.373 284.875C800.495 289.549 788.768 291.885 776.191 291.885L703.024 291.885C698.265 291.885 694.23 290.229 690.915 286.915C687.601 283.601 685.943 279.565 685.943 274.806ZM720.106 147.337L720.106 257.725L776.193 257.725C783.841 257.725 791.064 256.28 797.863 253.391C804.66 250.502 810.524 246.592 815.452 241.664C820.381 236.735 824.289 230.873 827.178 224.073C830.069 217.274 831.512 210.051 831.512 202.404C831.512 194.756 830.067 187.574 827.178 180.861C824.289 174.148 820.338 168.284 815.324 163.27C810.311 158.257 804.446 154.348 797.733 151.544C791.018 148.739 783.839 147.337 776.191 147.337L720.104 147.337L720.106 147.337ZM988.722 113.175L1059.08 113.175C1063.84 113.175 1067.88 114.831 1071.19 118.147C1074.51 121.461 1076.17 125.497 1076.17 130.256C1076.17 135.015 1074.51 139.05 1071.19 142.365C1067.88 145.679 1063.84 147.337 1059.08 147.337L988.722 147.337C983.283 147.337 978.651 149.25 974.827 153.072C971.003 156.896 969.09 161.528 969.09 166.967L969.09 274.806C969.09 279.565 967.434 283.601 964.12 286.915C960.805 290.229 956.768 291.885 952.011 291.885C947.252 291.885 943.216 290.229 939.902 286.915C936.588 283.601 934.929 279.565 934.929 274.806L934.929 166.967C934.929 159.489 936.331 152.522 939.136 146.061C941.94 139.603 945.807 133.909 950.737 128.98C955.664 124.051 961.401 120.184 967.946 117.379C974.488 114.574 981.415 113.173 988.724 113.173L988.722 113.175ZM1182.18 112.569C1203.78 106.65 1225.69 108.878 1244.64 117.385C1247.8 118.804 1252.56 120.764 1254.91 123.167C1256.47 124.756 1257.66 126.753 1258.28 129.051C1260.26 136.254 1256.02 143.692 1248.82 145.664C1245.59 146.547 1242.32 146.187 1239.51 144.868C1238.17 144.241 1236.6 143.196 1235.11 142.482C1221.31 135.891 1205.17 134.039 1189.26 138.398C1154.11 148.029 1133.42 184.336 1143.05 219.491C1152.69 254.643 1188.99 275.331 1224.15 265.7C1258.13 256.388 1278.59 222.147 1271.21 188.117L1271.23 188.105C1271.02 187.594 1270.84 187.063 1270.69 186.516C1268.71 179.313 1272.95 171.875 1280.16 169.901C1287.36 167.927 1294.8 172.167 1296.77 179.368C1297.16 180.783 1297.42 182.553 1297.71 184.027C1307.13 231.343 1278.48 278.581 1231.22 291.531C1181.81 305.072 1130.76 275.99 1117.22 226.57C1103.68 177.151 1132.77 126.111 1182.19 112.569L1182.18 112.569ZM1264.39 143.784C1271.07 141.955 1277.96 145.883 1279.79 152.557C1281.62 159.233 1277.69 166.126 1271.01 167.955C1264.34 169.783 1257.44 165.855 1255.61 159.182C1253.79 152.506 1257.71 145.613 1264.39 143.784Z"/>
</mask>
<g filter="url(#filter1_i_764_2052)">
<path fill-rule="evenodd" clip-rule="evenodd" d="M1196.99 166.614C1197.6 166.443 1198.22 166.293 1198.84 166.155L1198.84 194.105C1198.84 198.503 1202.44 202.102 1206.84 202.102L1206.84 202.102C1211.24 202.102 1214.84 198.503 1214.84 194.105L1214.84 166.216C1227.62 169.133 1238.43 178.811 1242.13 192.341C1247.5 211.913 1235.98 232.125 1216.41 237.488C1196.84 242.85 1176.62 231.331 1171.26 211.761C1165.9 192.19 1177.42 171.977 1196.99 166.614L1196.99 166.614ZM18.2748 113.175L149.822 113.175C153.221 113.175 156.323 114.068 159.128 115.852C161.933 117.638 164.014 120.058 165.375 123.118C166.735 126.177 167.201 129.364 166.778 132.679C166.353 135.993 165.036 138.925 162.825 141.475L60.8499 257.725L154.922 257.725C159.681 257.725 163.717 259.383 167.031 262.697C170.345 266.011 172.003 270.047 172.003 274.806C172.003 279.565 170.347 283.601 167.031 286.915C163.717 290.229 159.681 291.885 154.922 291.885L23.1199 291.885C19.7193 291.885 16.6186 290.994 13.8158 289.208C11.011 287.424 8.92947 285.002 7.56923 281.942C6.20899 278.883 5.74252 275.696 6.16784 272.381C6.59316 269.067 7.99456 266.135 10.374 263.585L112.349 147.333L18.2767 147.333C13.5178 147.333 9.48219 145.675 6.16783 142.361C2.85347 139.047 1.19531 135.011 1.19531 130.252C1.19531 125.493 2.85151 121.458 6.16783 118.143C9.48219 114.829 13.5178 113.171 18.2767 113.171L18.2748 113.175ZM233.479 238.605L233.479 166.457C233.479 158.98 234.88 152.012 237.685 145.552C240.49 139.094 244.271 133.484 249.029 128.725C253.788 123.966 259.439 120.185 265.983 117.381C272.526 114.576 279.453 113.175 286.761 113.175L345.652 113.175C353.129 113.175 360.097 114.576 366.557 117.381C373.015 120.185 378.666 124.009 383.511 128.853C388.354 133.698 392.178 139.348 394.983 145.807C397.788 152.265 399.189 159.233 399.189 166.712L399.189 170.791C399.189 178.268 397.788 185.236 394.983 191.696C392.178 198.154 388.354 203.805 383.511 208.648C378.668 213.493 373.015 217.315 366.557 220.122C360.099 222.927 353.131 224.328 345.652 224.328L267.64 224.328L267.64 238.605C267.64 243.873 269.51 248.377 273.249 252.115C276.989 255.855 281.493 257.723 286.761 257.723L381.598 257.723C386.357 257.723 390.393 259.381 393.707 262.695C397.021 266.01 398.677 270.045 398.677 274.804C398.677 279.563 397.021 283.599 393.707 286.913C390.393 290.227 386.357 291.883 381.598 291.883L286.761 291.883C279.453 291.883 272.526 290.482 265.983 287.677C259.439 284.873 253.788 281.092 249.029 276.333C244.271 271.574 240.49 265.923 237.685 259.379C234.88 252.836 233.479 245.91 233.479 238.603L233.479 238.605ZM267.64 166.457L267.64 190.167L345.652 190.167C351.091 190.167 355.681 188.297 359.419 184.558C363.158 180.818 365.026 176.23 365.026 170.791L365.026 166.712C365.026 161.273 363.158 156.683 359.419 152.945C355.681 149.205 351.091 147.337 345.652 147.337L286.761 147.337C281.493 147.337 276.989 149.164 273.249 152.818C269.511 156.473 267.64 161.018 267.64 166.457ZM481.444 257.725L574.752 257.725C580.021 257.725 584.483 255.898 588.137 252.244C591.792 248.591 593.617 244.046 593.617 238.607C593.617 233.336 591.79 228.875 588.137 225.222C584.483 221.567 580.021 219.74 574.752 219.74L517.647 219.74C510.339 219.74 503.455 218.338 496.997 215.534C490.539 212.729 484.888 208.905 480.043 204.06C475.2 199.217 471.376 193.566 468.571 187.106C465.766 180.648 464.365 173.764 464.365 166.455C464.365 159.148 465.766 152.263 468.571 145.805C471.376 139.346 475.2 133.696 480.043 128.851C484.886 124.007 490.537 120.184 496.997 117.379C503.455 114.574 510.339 113.173 517.647 113.173L610.698 113.173C615.457 113.173 619.495 114.829 622.809 118.145C626.124 121.459 627.782 125.495 627.782 130.254C627.782 135.013 626.124 139.049 622.809 142.363C619.495 145.677 615.457 147.335 610.698 147.335L517.647 147.335C512.208 147.335 507.663 149.205 504.008 152.943C500.354 156.681 498.528 161.187 498.528 166.455C498.528 171.724 500.354 176.228 504.008 179.967C507.663 183.705 512.208 185.575 517.647 185.575L574.752 185.575C582.061 185.575 588.944 186.978 595.403 189.783C601.861 192.586 607.47 196.367 612.229 201.126C616.988 205.885 620.769 211.494 623.574 217.952C626.378 224.41 627.78 231.294 627.78 238.603C627.78 245.91 626.42 252.793 623.701 259.251C620.983 265.71 617.2 271.36 612.357 276.205C607.513 281.051 601.904 284.873 595.53 287.677C589.156 290.482 582.231 291.883 574.752 291.883L481.444 291.883C476.685 291.883 472.648 290.227 469.335 286.913C466.021 283.599 464.363 279.563 464.363 274.804C464.363 270.045 466.021 266.01 469.335 262.695C472.65 259.381 476.685 257.723 481.444 257.723L481.444 257.725ZM685.943 274.806L685.943 130.256C685.943 125.497 687.601 121.461 690.915 118.147C694.23 114.833 698.265 113.175 703.024 113.175L776.191 113.175C788.598 113.175 800.24 115.513 811.118 120.185C821.996 124.86 831.471 131.275 839.544 139.433C847.617 147.59 853.989 157.067 858.664 167.859C863.339 178.65 865.675 190.165 865.675 202.404C865.675 214.64 863.339 226.198 858.664 237.076C853.989 247.952 847.659 257.472 839.672 265.627C831.683 273.785 822.249 280.202 811.373 284.875C800.495 289.549 788.768 291.885 776.191 291.885L703.024 291.885C698.265 291.885 694.23 290.229 690.915 286.915C687.601 283.601 685.943 279.565 685.943 274.806ZM720.106 147.337L720.106 257.725L776.193 257.725C783.841 257.725 791.064 256.28 797.863 253.391C804.66 250.502 810.524 246.592 815.452 241.664C820.381 236.735 824.289 230.873 827.178 224.073C830.069 217.274 831.512 210.051 831.512 202.404C831.512 194.756 830.067 187.574 827.178 180.861C824.289 174.148 820.338 168.284 815.324 163.27C810.311 158.257 804.446 154.348 797.733 151.544C791.018 148.739 783.839 147.337 776.191 147.337L720.104 147.337L720.106 147.337ZM988.722 113.175L1059.08 113.175C1063.84 113.175 1067.88 114.831 1071.19 118.147C1074.51 121.461 1076.17 125.497 1076.17 130.256C1076.17 135.015 1074.51 139.05 1071.19 142.365C1067.88 145.679 1063.84 147.337 1059.08 147.337L988.722 147.337C983.283 147.337 978.651 149.25 974.827 153.072C971.003 156.896 969.09 161.528 969.09 166.967L969.09 274.806C969.09 279.565 967.434 283.601 964.12 286.915C960.805 290.229 956.768 291.885 952.011 291.885C947.252 291.885 943.216 290.229 939.902 286.915C936.588 283.601 934.929 279.565 934.929 274.806L934.929 166.967C934.929 159.489 936.331 152.522 939.136 146.061C941.94 139.603 945.807 133.909 950.737 128.98C955.664 124.051 961.401 120.184 967.946 117.379C974.488 114.574 981.415 113.173 988.724 113.173L988.722 113.175ZM1182.18 112.569C1203.78 106.65 1225.69 108.878 1244.64 117.385C1247.8 118.804 1252.56 120.764 1254.91 123.167C1256.47 124.756 1257.66 126.753 1258.28 129.051C1260.26 136.254 1256.02 143.692 1248.82 145.664C1245.59 146.547 1242.32 146.187 1239.51 144.868C1238.17 144.241 1236.6 143.196 1235.11 142.482C1221.31 135.891 1205.17 134.039 1189.26 138.398C1154.11 148.029 1133.42 184.336 1143.05 219.491C1152.69 254.643 1188.99 275.331 1224.15 265.7C1258.13 256.388 1278.59 222.147 1271.21 188.117L1271.23 188.105C1271.02 187.594 1270.84 187.063 1270.69 186.516C1268.71 179.313 1272.95 171.875 1280.16 169.901C1287.36 167.927 1294.8 172.167 1296.77 179.368C1297.16 180.783 1297.42 182.553 1297.71 184.027C1307.13 231.343 1278.48 278.581 1231.22 291.531C1181.81 305.072 1130.76 275.99 1117.22 226.57C1103.68 177.151 1132.77 126.111 1182.19 112.569L1182.18 112.569ZM1264.39 143.784C1271.07 141.955 1277.96 145.883 1279.79 152.557C1281.62 159.233 1277.69 166.126 1271.01 167.955C1264.34 169.783 1257.44 165.855 1255.61 159.182C1253.79 152.506 1257.71 145.613 1264.39 143.784Z" fill="#2C1758" fill-opacity="0.7"/>
</g>
<path fill-rule="evenodd" clip-rule="evenodd" d="M1196.99 166.614C1197.6 166.443 1198.22 166.293 1198.84 166.155L1198.84 194.105C1198.84 198.503 1202.44 202.102 1206.84 202.102L1206.84 202.102C1211.24 202.102 1214.84 198.503 1214.84 194.105L1214.84 166.216C1227.62 169.133 1238.43 178.811 1242.13 192.341C1247.5 211.913 1235.98 232.125 1216.41 237.488C1196.84 242.85 1176.62 231.331 1171.26 211.761C1165.9 192.19 1177.42 171.977 1196.99 166.614L1196.99 166.614ZM18.2748 113.175L149.822 113.175C153.221 113.175 156.323 114.068 159.128 115.852C161.933 117.638 164.014 120.058 165.375 123.118C166.735 126.177 167.201 129.364 166.778 132.679C166.353 135.993 165.036 138.925 162.825 141.475L60.8499 257.725L154.922 257.725C159.681 257.725 163.717 259.383 167.031 262.697C170.345 266.011 172.003 270.047 172.003 274.806C172.003 279.565 170.347 283.601 167.031 286.915C163.717 290.229 159.681 291.885 154.922 291.885L23.1199 291.885C19.7193 291.885 16.6186 290.994 13.8158 289.208C11.011 287.424 8.92947 285.002 7.56923 281.942C6.20899 278.883 5.74252 275.696 6.16784 272.381C6.59316 269.067 7.99456 266.135 10.374 263.585L112.349 147.333L18.2767 147.333C13.5178 147.333 9.48219 145.675 6.16783 142.361C2.85347 139.047 1.19531 135.011 1.19531 130.252C1.19531 125.493 2.85151 121.458 6.16783 118.143C9.48219 114.829 13.5178 113.171 18.2767 113.171L18.2748 113.175ZM233.479 238.605L233.479 166.457C233.479 158.98 234.88 152.012 237.685 145.552C240.49 139.094 244.271 133.484 249.029 128.725C253.788 123.966 259.439 120.185 265.983 117.381C272.526 114.576 279.453 113.175 286.761 113.175L345.652 113.175C353.129 113.175 360.097 114.576 366.557 117.381C373.015 120.185 378.666 124.009 383.511 128.853C388.354 133.698 392.178 139.348 394.983 145.807C397.788 152.265 399.189 159.233 399.189 166.712L399.189 170.791C399.189 178.268 397.788 185.236 394.983 191.696C392.178 198.154 388.354 203.805 383.511 208.648C378.668 213.493 373.015 217.315 366.557 220.122C360.099 222.927 353.131 224.328 345.652 224.328L267.64 224.328L267.64 238.605C267.64 243.873 269.51 248.377 273.249 252.115C276.989 255.855 281.493 257.723 286.761 257.723L381.598 257.723C386.357 257.723 390.393 259.381 393.707 262.695C397.021 266.01 398.677 270.045 398.677 274.804C398.677 279.563 397.021 283.599 393.707 286.913C390.393 290.227 386.357 291.883 381.598 291.883L286.761 291.883C279.453 291.883 272.526 290.482 265.983 287.677C259.439 284.873 253.788 281.092 249.029 276.333C244.271 271.574 240.49 265.923 237.685 259.379C234.88 252.836 233.479 245.91 233.479 238.603L233.479 238.605ZM267.64 166.457L267.64 190.167L345.652 190.167C351.091 190.167 355.681 188.297 359.419 184.558C363.158 180.818 365.026 176.23 365.026 170.791L365.026 166.712C365.026 161.273 363.158 156.683 359.419 152.945C355.681 149.205 351.091 147.337 345.652 147.337L286.761 147.337C281.493 147.337 276.989 149.164 273.249 152.818C269.511 156.473 267.64 161.018 267.64 166.457ZM481.444 257.725L574.752 257.725C580.021 257.725 584.483 255.898 588.137 252.244C591.792 248.591 593.617 244.046 593.617 238.607C593.617 233.336 591.79 228.875 588.137 225.222C584.483 221.567 580.021 219.74 574.752 219.74L517.647 219.74C510.339 219.74 503.455 218.338 496.997 215.534C490.539 212.729 484.888 208.905 480.043 204.06C475.2 199.217 471.376 193.566 468.571 187.106C465.766 180.648 464.365 173.764 464.365 166.455C464.365 159.148 465.766 152.263 468.571 145.805C471.376 139.346 475.2 133.696 480.043 128.851C484.886 124.007 490.537 120.184 496.997 117.379C503.455 114.574 510.339 113.173 517.647 113.173L610.698 113.173C615.457 113.173 619.495 114.829 622.809 118.145C626.124 121.459 627.782 125.495 627.782 130.254C627.782 135.013 626.124 139.049 622.809 142.363C619.495 145.677 615.457 147.335 610.698 147.335L517.647 147.335C512.208 147.335 507.663 149.205 504.008 152.943C500.354 156.681 498.528 161.187 498.528 166.455C498.528 171.724 500.354 176.228 504.008 179.967C507.663 183.705 512.208 185.575 517.647 185.575L574.752 185.575C582.061 185.575 588.944 186.978 595.403 189.783C601.861 192.586 607.47 196.367 612.229 201.126C616.988 205.885 620.769 211.494 623.574 217.952C626.378 224.41 627.78 231.294 627.78 238.603C627.78 245.91 626.42 252.793 623.701 259.251C620.983 265.71 617.2 271.36 612.357 276.205C607.513 281.051 601.904 284.873 595.53 287.677C589.156 290.482 582.231 291.883 574.752 291.883L481.444 291.883C476.685 291.883 472.648 290.227 469.335 286.913C466.021 283.599 464.363 279.563 464.363 274.804C464.363 270.045 466.021 266.01 469.335 262.695C472.65 259.381 476.685 257.723 481.444 257.723L481.444 257.725ZM685.943 274.806L685.943 130.256C685.943 125.497 687.601 121.461 690.915 118.147C694.23 114.833 698.265 113.175 703.024 113.175L776.191 113.175C788.598 113.175 800.24 115.513 811.118 120.185C821.996 124.86 831.471 131.275 839.544 139.433C847.617 147.59 853.989 157.067 858.664 167.859C863.339 178.65 865.675 190.165 865.675 202.404C865.675 214.64 863.339 226.198 858.664 237.076C853.989 247.952 847.659 257.472 839.672 265.627C831.683 273.785 822.249 280.202 811.373 284.875C800.495 289.549 788.768 291.885 776.191 291.885L703.024 291.885C698.265 291.885 694.23 290.229 690.915 286.915C687.601 283.601 685.943 279.565 685.943 274.806ZM720.106 147.337L720.106 257.725L776.193 257.725C783.841 257.725 791.064 256.28 797.863 253.391C804.66 250.502 810.524 246.592 815.452 241.664C820.381 236.735 824.289 230.873 827.178 224.073C830.069 217.274 831.512 210.051 831.512 202.404C831.512 194.756 830.067 187.574 827.178 180.861C824.289 174.148 820.338 168.284 815.324 163.27C810.311 158.257 804.446 154.348 797.733 151.544C791.018 148.739 783.839 147.337 776.191 147.337L720.104 147.337L720.106 147.337ZM988.722 113.175L1059.08 113.175C1063.84 113.175 1067.88 114.831 1071.19 118.147C1074.51 121.461 1076.17 125.497 1076.17 130.256C1076.17 135.015 1074.51 139.05 1071.19 142.365C1067.88 145.679 1063.84 147.337 1059.08 147.337L988.722 147.337C983.283 147.337 978.651 149.25 974.827 153.072C971.003 156.896 969.09 161.528 969.09 166.967L969.09 274.806C969.09 279.565 967.434 283.601 964.12 286.915C960.805 290.229 956.768 291.885 952.011 291.885C947.252 291.885 943.216 290.229 939.902 286.915C936.588 283.601 934.929 279.565 934.929 274.806L934.929 166.967C934.929 159.489 936.331 152.522 939.136 146.061C941.94 139.603 945.807 133.909 950.737 128.98C955.664 124.051 961.401 120.184 967.946 117.379C974.488 114.574 981.415 113.173 988.724 113.173L988.722 113.175ZM1182.18 112.569C1203.78 106.65 1225.69 108.878 1244.64 117.385C1247.8 118.804 1252.56 120.764 1254.91 123.167C1256.47 124.756 1257.66 126.753 1258.28 129.051C1260.26 136.254 1256.02 143.692 1248.82 145.664C1245.59 146.547 1242.32 146.187 1239.51 144.868C1238.17 144.241 1236.6 143.196 1235.11 142.482C1221.31 135.891 1205.17 134.039 1189.26 138.398C1154.11 148.029 1133.42 184.336 1143.05 219.491C1152.69 254.643 1188.99 275.331 1224.15 265.7C1258.13 256.388 1278.59 222.147 1271.21 188.117L1271.23 188.105C1271.02 187.594 1270.84 187.063 1270.69 186.516C1268.71 179.313 1272.95 171.875 1280.16 169.901C1287.36 167.927 1294.8 172.167 1296.77 179.368C1297.16 180.783 1297.42 182.553 1297.71 184.027C1307.13 231.343 1278.48 278.581 1231.22 291.531C1181.81 305.072 1130.76 275.99 1117.22 226.57C1103.68 177.151 1132.77 126.111 1182.19 112.569L1182.18 112.569ZM1264.39 143.784C1271.07 141.955 1277.96 145.883 1279.79 152.557C1281.62 159.233 1277.69 166.126 1271.01 167.955C1264.34 169.783 1257.44 165.855 1255.61 159.182C1253.79 152.506 1257.71 145.613 1264.39 143.784Z" stroke="#9F63CF" stroke-width="2" mask="url(#path-3-inside-2_764_2052)"/>
<path d="M29.4314 44.0627L29.4314 68.9841C29.4314 72.9649 28.3338 76.0421 26.1405 78.2157C23.9473 80.3894 21.1033 81.3752 17.6106 81.1714C14.3609 81.0499 11.7404 79.9327 9.751 77.8198C7.75964 75.7069 6.76395 72.763 6.76395 68.9841L6.76395 44.0627L1.86916e-09 44.0627L7.44585e-07 68.9841C9.16493e-07 74.7524 1.67579 79.2408 5.02739 82.4493C8.37899 85.6579 12.5734 87.3239 17.6106 87.4473C23.0143 87.6512 27.4615 86.1361 30.9562 82.908C34.4489 79.6779 36.1973 75.0366 36.1973 68.9841L36.1973 44.0627L29.4333 44.0627L29.4314 44.0627ZM73.9136 86.6555L73.9136 70.507C73.9136 66.0382 72.7042 62.5259 70.2876 59.9662C67.8709 57.4064 64.7741 56.1265 60.9952 56.1265C57.0948 56.1265 53.7236 57.7318 50.8796 60.9403L50.5131 56.5538L44.786 56.5538L44.786 86.6555L51.0619 86.6555L51.0619 70.9343C51.0619 68.4157 51.8538 66.2832 53.4374 64.5369C55.0211 62.7905 57.0321 61.9164 59.4703 61.9164C62.0301 61.9164 64.0195 62.6984 65.4405 64.2625C66.8634 65.8266 67.5749 67.9277 67.5749 70.5698L67.5749 86.6555L73.9116 86.6555L73.9136 86.6555ZM82.2004 44.0627L82.2004 86.6555L88.4763 86.6555L88.4763 44.0627L82.2004 44.0627ZM110.84 56.005C106.25 56.005 102.522 57.4887 99.6582 60.4542C96.7946 63.4197 95.3618 67.1574 95.3618 71.6654C95.3618 76.1754 96.7848 79.9013 99.6268 82.8472C102.471 85.7911 106.208 87.265 110.838 87.265C115.509 87.265 119.278 85.7911 122.141 82.8472C125.005 79.9013 126.438 76.1754 126.438 71.6654C126.438 67.1966 124.985 63.4706 122.081 60.4836C119.176 57.4985 115.428 56.005 110.838 56.005L110.84 56.005ZM110.84 61.7948C113.521 61.7948 115.736 62.7592 117.482 64.6898C119.229 66.6204 120.103 68.9449 120.103 71.6654C120.103 74.429 119.26 76.7438 117.575 78.6116C115.889 80.4795 113.643 81.4144 110.842 81.4144C108.039 81.4144 105.805 80.4795 104.139 78.6116C102.473 76.7418 101.64 74.427 101.64 71.6654C101.64 68.9038 102.483 66.5674 104.168 64.6584C105.854 62.7494 108.078 61.7948 110.84 61.7948ZM154.225 78.5528C152.396 80.4227 150.02 81.3556 147.096 81.3556C144.374 81.3556 142.1 80.503 140.271 78.7959C138.443 77.0907 137.529 74.7132 137.529 71.6654C137.529 68.7411 138.445 66.3754 140.271 64.5663C142.1 62.7592 144.395 61.8556 147.157 61.8556C149.838 61.8556 152.092 62.7494 153.921 64.5369L157.943 60.3327C154.938 57.3672 151.322 55.8835 147.096 55.8835C142.547 55.8835 138.768 57.2653 135.761 60.0269C132.757 62.7886 131.253 66.6694 131.253 71.6654C131.253 76.6634 132.757 80.5422 135.761 83.3039C138.768 86.0655 142.545 87.4473 147.096 87.4473C151.524 87.4473 155.322 85.8832 158.491 82.7551L154.227 78.5509L154.225 78.5528ZM164.097 44.0647L164.097 86.6574L170.434 86.6574L170.434 72.765L183.291 86.6574L190.969 86.6574L190.969 86.2302L176.222 70.754L189.201 56.983L189.201 56.6165L181.584 56.6165L170.434 68.9253L170.434 44.0647L164.097 44.0647ZM230.455 47.0498C232.405 47.0498 234.142 47.4555 235.665 48.2689C237.187 49.0823 238.346 50.127 239.138 51.4068C239.929 52.6867 240.51 54.1077 240.874 55.6718C241.239 57.2359 241.239 58.7902 240.874 60.3327C240.508 61.8752 239.929 63.2884 239.138 64.5682C238.346 65.8481 237.187 66.8948 235.665 67.7062C234.142 68.5196 232.405 68.9253 230.455 68.9253L215.039 68.9253L215.039 47.0498L230.455 47.0498ZM230.455 71.9104C232.689 71.9104 234.71 71.5145 236.517 70.7226C238.324 69.9308 239.788 68.8744 240.906 67.5533C242.023 66.2323 242.875 64.7407 243.465 63.0747C244.053 61.4087 244.349 59.7035 244.349 57.9572C244.349 56.2108 244.055 54.5056 243.465 52.8396C242.875 51.1736 242.023 49.682 240.906 48.361C239.788 47.04 238.326 45.9835 236.517 45.1917C234.71 44.3998 232.689 44.0039 230.455 44.0039L211.749 44.0039L211.749 86.6574L215.039 86.6574L215.039 71.9104L230.455 71.9104ZM263.908 87.1435C268.255 87.1435 271.889 85.7421 274.815 82.9393C277.74 80.1365 279.202 76.3988 279.202 71.7281C279.202 67.0574 277.74 63.2786 274.815 60.3934C271.889 57.5083 268.255 56.0677 263.908 56.0677C259.561 56.0677 255.925 57.5103 253.001 60.3934C250.074 63.2786 248.612 67.0555 248.612 71.7281C248.612 76.3988 250.074 80.1365 253.001 82.9393C255.925 85.7421 259.561 87.1435 263.908 87.1435ZM263.908 84.2172C260.374 84.2172 257.428 83.0804 255.072 80.8049C252.717 78.5293 251.539 75.5031 251.539 71.7262C251.539 67.9081 252.726 64.8093 255.104 62.4338C257.479 60.0563 260.415 58.8686 263.908 58.8686C267.403 58.8686 270.337 60.0563 272.714 62.4338C275.09 64.8093 276.28 67.9081 276.28 71.7262C276.28 75.5031 275.102 78.5293 272.746 80.8049C270.39 83.0804 267.444 84.2172 263.91 84.2172L263.908 84.2172ZM308.755 60.0877C305.911 57.4064 302.173 56.0658 297.544 56.0658C294.212 56.0246 291.379 56.7263 289.043 58.1669C286.707 59.6094 285.56 61.7125 285.601 64.4742C285.601 65.6521 285.844 66.6772 286.332 67.5514C286.819 68.4255 287.377 69.1252 288.008 69.6525C288.637 70.1817 289.541 70.6482 290.719 71.0539C291.897 71.4596 292.912 71.7536 293.765 71.9378C294.617 72.1201 295.795 72.3338 297.299 72.5768C298.598 72.7806 299.594 72.9531 300.284 73.0942C300.974 73.2354 301.838 73.4608 302.875 73.7646C303.91 74.0703 304.682 74.4133 305.19 74.7994C305.697 75.1856 306.154 75.6932 306.562 76.3224C306.967 76.9535 307.15 77.6944 307.11 78.547C307.069 80.0091 306.491 81.1969 305.374 82.1122C304.257 83.0275 303.069 83.6155 301.809 83.8801C300.548 84.1447 299.188 84.276 297.726 84.276C295.572 84.276 293.49 83.8488 291.479 82.9962C289.468 82.1436 287.875 80.8637 286.695 79.1565L284.502 81.1067C285.762 83.0569 287.579 84.5504 289.955 85.5853C292.332 86.6222 294.902 87.1396 297.663 87.1396C299.655 87.1396 301.513 86.9162 303.237 86.4693C304.964 86.0224 306.518 85.1384 307.898 83.8194C309.28 82.4983 309.99 80.8029 310.031 78.7312C310.152 75.6854 308.812 73.4706 306.009 72.0888C304.547 71.3165 301.744 70.5854 297.6 69.8955C296.585 69.7328 295.905 69.6113 295.558 69.531C295.213 69.4506 294.574 69.2977 293.639 69.0743C292.704 68.8508 292.024 68.6274 291.599 68.404C291.172 68.1805 290.674 67.8767 290.105 67.4886C289.537 67.1025 289.122 66.6556 288.857 66.148C288.592 65.6404 288.461 65.0622 288.461 64.4114C288.42 62.5828 289.284 61.1931 291.05 60.2386C292.818 59.2841 294.982 58.8274 297.54 58.8666C301.399 58.8666 304.527 59.923 306.922 62.0359L308.751 60.0857L308.755 60.0877ZM339.284 60.0877C336.44 57.4064 332.704 56.0658 328.073 56.0658C324.741 56.0246 321.908 56.7263 319.572 58.1669C317.238 59.6094 316.089 61.7125 316.13 64.4742C316.13 65.6521 316.373 66.6772 316.861 67.5514C317.347 68.4255 317.906 69.1252 318.537 69.6525C319.166 70.1817 320.072 70.6482 321.248 71.0539C322.426 71.4596 323.441 71.7536 324.296 71.9378C325.148 72.1201 326.326 72.3338 327.83 72.5768C329.129 72.7806 330.125 72.9531 330.817 73.0942C331.507 73.2354 332.371 73.4608 333.406 73.7646C334.441 74.0703 335.213 74.4133 335.721 74.7994C336.228 75.1856 336.687 75.6932 337.093 76.3224C337.498 76.9535 337.682 77.6944 337.641 78.547C337.6 80.0091 337.022 81.1969 335.905 82.1122C334.788 83.0275 333.6 83.6155 332.34 83.8801C331.079 84.1447 329.719 84.276 328.257 84.276C326.105 84.276 324.021 83.8488 322.01 82.9962C319.999 82.1436 318.406 80.8637 317.228 79.1565L315.033 81.1067C316.293 83.0569 318.11 84.5504 320.487 85.5853C322.865 86.6222 325.433 87.1396 328.196 87.1396C330.187 87.1396 332.046 86.9162 333.772 86.4693C335.499 86.0224 337.051 85.1384 338.433 83.8194C339.815 82.4983 340.525 80.8029 340.566 78.7312C340.687 75.6854 339.347 73.4706 336.544 72.0888C335.082 71.3165 332.279 70.5854 328.135 69.8955C327.12 69.7328 326.44 69.6113 326.095 69.531C325.75 69.4506 325.109 69.2977 324.176 69.0743C323.241 68.8508 322.561 68.6274 322.134 68.404C321.707 68.1805 321.209 67.8767 320.64 67.4886C320.072 67.1025 319.656 66.6556 319.392 66.148C319.127 65.6404 318.996 65.0622 318.996 64.4114C318.955 62.5828 319.817 61.1931 321.585 60.2386C323.353 59.2841 325.517 58.8274 328.075 58.8666C331.934 58.8666 335.062 59.923 337.457 62.0359L339.286 60.0857L339.284 60.0877ZM351.105 56.4323L351.105 86.6555L348.118 86.6555L348.118 56.4323L351.105 56.4323ZM347.265 46.744C347.265 47.4751 347.52 48.0533 348.027 48.4806C348.535 48.9059 349.084 49.1195 349.672 49.1195C350.26 49.1195 350.809 48.9059 351.316 48.4806C351.824 48.0533 352.079 47.4751 352.079 46.744C352.079 46.0129 351.824 45.4327 351.316 45.0074C350.809 44.5801 350.26 44.3665 349.672 44.3665C349.084 44.3665 348.535 44.5801 348.027 45.0074C347.52 45.4327 347.265 46.0129 347.265 46.744ZM376.269 58.9293C379.844 58.9293 382.79 60.0269 385.105 62.2202C387.419 64.4134 388.578 67.5416 388.578 71.6046C388.578 75.6266 387.41 78.7332 385.075 80.9264C382.739 83.1196 379.805 84.2172 376.269 84.2172C372.694 84.2172 369.748 83.0393 367.433 80.6834C365.119 78.3274 363.96 75.2796 363.96 71.5439C363.96 67.8473 365.128 64.8211 367.463 62.4652C369.799 60.1092 372.733 58.9293 376.269 58.9293ZM360.973 44L360.973 86.6535L363.899 86.6535L363.899 80.0111C365.119 82.2455 366.865 83.9918 369.14 85.2521C371.416 86.5124 373.852 87.1416 376.453 87.1416C380.801 87.1416 384.395 85.7598 387.239 82.9981C390.083 80.2365 391.504 76.438 391.504 71.6046C391.504 66.7693 390.071 62.9708 387.208 60.2092C384.344 57.4476 380.738 56.0658 376.391 56.0658C373.668 56.0658 371.2 56.6557 368.988 57.8337C366.773 59.0116 365.077 60.7796 363.899 63.1355L363.899 44.0019L360.973 44.0019L360.973 44ZM402.41 56.4303L402.41 86.6535L399.422 86.6535L399.422 56.4303L402.41 56.4303ZM398.57 46.742C398.57 47.4731 398.825 48.0513 399.332 48.4786C399.84 48.9039 400.389 49.1175 400.977 49.1175C401.567 49.1175 402.116 48.9039 402.623 48.4786C403.131 48.0513 403.386 47.4731 403.386 46.742C403.386 46.0109 403.131 45.4308 402.623 45.0055C402.116 44.5782 401.567 44.3645 400.977 44.3645C400.389 44.3645 399.84 44.5782 399.332 45.0055C398.825 45.4308 398.57 46.0109 398.57 46.742ZM412.707 44L412.707 86.6535L415.692 86.6535L415.692 44L412.707 44ZM428.977 56.4303L428.977 86.6535L425.99 86.6535L425.99 56.4303L428.977 56.4303ZM425.138 46.742C425.138 47.4731 425.393 48.0513 425.9 48.4786C426.408 48.9039 426.957 49.1175 427.545 49.1175C428.135 49.1175 428.683 48.9039 429.191 48.4786C429.699 48.0513 429.953 47.4731 429.953 46.742C429.953 46.0109 429.699 45.4308 429.191 45.0055C428.683 44.5782 428.135 44.3645 427.545 44.3645C426.957 44.3645 426.408 44.5782 425.9 45.0055C425.393 45.4308 425.138 46.0109 425.138 46.742ZM442.321 47.7769L442.321 56.5518L435.924 56.5518L435.924 59.0508L442.321 59.0508L442.321 77.3906C442.321 80.5187 442.97 82.9158 444.271 84.5818C445.571 86.2478 447.744 87.0788 450.792 87.0788C452.458 87.0788 454.346 86.5712 456.458 85.5559L455.424 83.1177C453.718 83.9311 452.174 84.3368 450.792 84.3368C448.599 84.3368 447.125 83.7586 446.374 82.6002C445.622 81.4419 445.245 79.7053 445.245 77.3906L445.245 59.0508L455.482 59.0508L455.482 56.5518L445.245 56.5518L445.245 47.4731L442.321 47.7789L442.321 47.7769ZM464.745 56.4303L464.745 86.6535L461.76 86.6535L461.76 56.4303L464.745 56.4303ZM460.906 46.742C460.906 47.4731 461.161 48.0513 461.668 48.4786C462.176 48.9039 462.725 49.1175 463.313 49.1175C463.903 49.1175 464.449 48.9039 464.957 48.4786C465.465 48.0513 465.719 47.4731 465.719 46.742C465.719 46.0109 465.465 45.4308 464.957 45.0055C464.449 44.5782 463.901 44.3645 463.313 44.3645C462.725 44.3645 462.176 44.5782 461.668 45.0055C461.161 45.4308 460.906 46.0109 460.906 46.742ZM487.901 87.1416C490.419 87.1416 492.856 86.6437 495.212 85.65C497.568 84.6543 499.457 83.2216 500.878 81.3537L498.745 79.6485C497.65 81.0714 496.086 82.1867 494.053 83.0001C492.023 83.8135 489.971 84.2192 487.899 84.2192C484.69 84.2192 481.917 83.2039 479.581 81.1734C477.244 79.1428 475.935 76.4204 475.649 73.008L502.765 73.008C503.293 67.4827 502.105 63.2785 499.2 60.3954C496.295 57.5103 492.528 56.0697 487.897 56.0697C483.632 56.0697 480.016 57.5436 477.05 60.4875C474.085 63.4334 472.601 67.1397 472.601 71.6085C472.601 76.2792 474.063 80.0385 476.988 82.8805C479.914 85.7245 483.548 87.1455 487.895 87.1455L487.901 87.1416ZM475.653 70.3835C475.978 66.8085 477.297 63.9861 479.614 61.9144C481.929 59.8427 484.692 58.8058 487.901 58.8058C491.597 58.8058 494.543 59.8231 496.736 61.8536C498.93 63.8842 500.047 66.7281 500.086 70.3835L475.651 70.3835L475.653 70.3835ZM532.079 60.0857C529.235 57.4044 525.498 56.0638 520.868 56.0638C517.536 56.0226 514.704 56.7243 512.367 58.1649C510.031 59.6075 508.885 61.7106 508.924 64.4722C508.924 65.6502 509.167 66.6752 509.655 67.5494C510.143 68.4235 510.702 69.1233 511.331 69.6505C511.96 70.1797 512.863 70.6462 514.041 71.0519C515.219 71.4576 516.235 71.7516 517.087 71.9359C517.94 72.1182 519.118 72.3318 520.621 72.5748C521.921 72.7787 522.916 72.9511 523.606 73.0923C524.296 73.2334 525.16 73.4588 526.197 73.7626C527.232 74.0684 528.004 74.4114 528.512 74.7975C529.02 75.1836 529.476 75.6912 529.884 76.3204C530.29 76.9515 530.472 77.6924 530.433 78.545C530.392 80.0072 529.813 81.1949 528.696 82.1102C527.579 83.0256 526.391 83.6136 525.131 83.8782C523.871 84.1428 522.51 84.2741 521.048 84.2741C518.894 84.2741 516.813 83.8468 514.802 82.9942C512.791 82.1416 511.197 80.8617 510.017 79.1545L507.824 81.1048C509.084 83.055 510.901 84.5485 513.277 85.5834C515.654 86.6202 518.224 87.1376 520.986 87.1376C522.975 87.1376 524.835 86.9142 526.56 86.4673C528.287 86.0204 529.841 85.1365 531.221 83.8174C532.603 82.4964 533.312 80.801 533.353 78.7292C533.475 75.6834 532.134 73.4686 529.331 72.0868C527.869 71.3145 525.066 70.5835 520.923 69.8935C519.908 69.7309 519.227 69.6093 518.881 69.529C518.536 69.4486 517.897 69.2958 516.962 69.0723C516.027 68.8489 515.347 68.6254 514.921 68.402C514.494 68.1785 513.996 67.8747 513.428 67.4867C512.859 67.1005 512.444 66.6537 512.179 66.146C511.915 65.6384 511.783 65.0602 511.783 64.4095C511.742 62.5808 512.607 61.1911 514.373 60.2366C516.14 59.2821 518.302 58.8254 520.862 58.8646C524.721 58.8646 527.85 59.9211 530.245 62.0339L532.073 60.0837L532.079 60.0857Z" fill="#00CCFF"/>
<path fill-rule="evenodd" clip-rule="evenodd" d="M540.627 81.2559C542.318 81.2559 543.688 82.6259 543.688 84.3174C543.688 86.0069 542.318 87.3789 540.627 87.3789C538.935 87.3789 537.565 86.0069 537.565 84.3174C537.565 82.6259 538.935 81.2559 540.627 81.2559Z" fill="#2C1758" fill-opacity="0.23"/>
</g>
<defs>
<filter id="filter0_i_764_2052" x="1.19531" y="109.248" width="1298.3" height="185.605" filterUnits="userSpaceOnUse" color-interpolation-filters="sRGB">
<feFlood flood-opacity="0" result="BackgroundImageFix"/>
<feBlend mode="normal" in="SourceGraphic" in2="BackgroundImageFix" result="shape"/>
<feColorMatrix in="SourceAlpha" type="matrix" values="0 0 0 0 0 0 0 0 0 0 0 0 0 0 0 0 0 0 127 0" result="hardAlpha"/>
<feOffset/>
<feGaussianBlur stdDeviation="21.5"/>
<feComposite in2="hardAlpha" operator="arithmetic" k2="-1" k3="1"/>
<feColorMatrix type="matrix" values="0 0 0 0 0 0 0 0 0 0 0 0 0 0 0 0 0 0 0.25 0"/>
<feBlend mode="normal" in2="shape" result="effect1_innerShadow_764_2052"/>
</filter>
<filter id="filter1_i_764_2052" x="1.19531" y="109.248" width="1298.3" height="185.605" filterUnits="userSpaceOnUse" color-interpolation-filters="sRGB">
<feFlood flood-opacity="0" result="BackgroundImageFix"/>
<feBlend mode="normal" in="SourceGraphic" in2="BackgroundImageFix" result="shape"/>
<feColorMatrix in="SourceAlpha" type="matrix" values="0 0 0 0 0 0 0 0 0 0 0 0 0 0 0 0 0 0 127 0" result="hardAlpha"/>
<feOffset/>
<feGaussianBlur stdDeviation="21.5"/>
<feComposite in2="hardAlpha" operator="arithmetic" k2="-1" k3="1"/>
<feColorMatrix type="matrix" values="0 0 0 0 0 0 0 0 0 0 0 0 0 0 0 0 0 0 0.25 0"/>
<feBlend mode="normal" in2="shape" result="effect1_innerShadow_764_2052"/>
</filter>
<linearGradient id="paint0_linear_764_2052" x1="689.124" y1="333.023" x2="1298.7" y2="333.023" gradientUnits="userSpaceOnUse">
<stop stop-color="#808080"/>
<stop offset="1" stop-color="#C2BEBE"/>
</linearGradient>
<clipPath id="clip0_764_2052">
<rect width="1299.5" height="392.492" fill="white"/>
</clipPath>
</defs>
</svg>
