<svg width="157" height="157" viewBox="0 0 157 157" fill="none" xmlns="http://www.w3.org/2000/svg">
<path d="M91.9373 64.76L137.54 18.9972V33.3588L91.5823 79.5167L65.77 53.7043L65.4177 53.352L65.0641 53.7031L19.46 98.9862V84.578L65.4152 38.9463L91.2295 64.7607L91.5837 65.1148L91.9373 64.76ZM19.46 137.54V124.879L29.4848 114.854V137.54H19.46ZM46.4834 137.54V98.6736L56.5083 88.6487V137.54H46.4834ZM73.5069 137.54V88.6584L83.5317 98.7964V137.54H73.5069ZM100.53 137.54V98.7204L110.555 88.7309V137.54H100.53ZM127.554 137.54V72.3896L137.54 62.4037V137.54H127.554Z" fill="#3B315C" stroke="#524A70"/>
</svg>
