<?xml version="1.0" encoding="UTF-8"?>
<!DOCTYPE svg PUBLIC "-//W3C//DTD SVG 1.1//EN" "http://www.w3.org/Graphics/SVG/1.1/DTD/svg11.dtd">
<!-- Creator: CorelDRAW 2021 (64-Bit) -->
<svg xmlns="http://www.w3.org/2000/svg" xml:space="preserve" width="9in" height="9in" version="1.1" style="shape-rendering:geometricPrecision; text-rendering:geometricPrecision; image-rendering:optimizeQuality; fill-rule:evenodd; clip-rule:evenodd"
viewBox="0 0 9000 9000"
 xmlns:xlink="http://www.w3.org/1999/xlink"
 xmlns:xodm="http://www.corel.com/coreldraw/odm/2003">
 <defs>
  <style type="text/css">
   <![CDATA[
    .fil0 {fill:url(#id0)}
   ]]>
  </style>
  <linearGradient id="id0" gradientUnits="userSpaceOnUse" x1="247.09" y1="4499.99" x2="8752.9" y2="4499.99">
   <stop offset="0" style="stop-opacity:1; stop-color:aqua"/>
   <stop offset="1" style="stop-opacity:1; stop-color:#66FFCC"/>
  </linearGradient>
 </defs>
 <g id="Layer_x0020_1">
  <metadata id="CorelCorpID_0Corel-Layer"/>
  <path class="fil0" d="M7144.01 1829.72c305.9,-83.85 621.85,96.19 705.69,402.06 83.82,305.94 -96.23,621.88 -402.09,705.7 -305.93,83.81 -621.92,-96.19 -705.73,-402.09 -83.78,-305.94 96.23,-621.88 402.13,-705.66zm-3089.03 1046.26c28.36,-7.78 56.76,-14.75 85.15,-21.01l0 1280.89c0,201.54 164.91,366.45 366.45,366.45l0.07 0c201.54,0 366.44,-164.91 366.44,-366.45l0 -1278.13c585.85,133.64 1080.98,577.18 1250.9,1197.26 245.79,896.98 -282.06,1823.31 -1178.97,2069.06 -896.98,245.78 -1823.31,-282.1 -2069.06,-1179.01 -245.74,-896.91 282.11,-1823.24 1179.01,-2069.05zm-678.5 -2476.85c989.85,-271.24 1993.8,-169.11 2862.34,220.71 144.86,65.04 362.84,154.86 470.84,265.03 71.33,72.81 125.72,164.33 154.54,269.61 90.46,330.09 -103.79,671 -433.85,761.39 -147.82,40.52 -297.83,23.94 -426.53,-36.42 -61.28,-28.72 -133.28,-76.6 -201.57,-109.28 -632.52,-302.05 -1372.35,-386.99 -2101.41,-187.22 -1611.06,441.41 -2559.21,2105.34 -2117.72,3716.39 441.45,1611.02 2105.34,2559.14 3716.39,2117.69 1557.48,-426.78 2495.3,-1996.03 2157.04,-3555.6l0.78 -0.49c-9.63,-23.48 -18,-47.78 -24.83,-72.85 -90.53,-330.13 103.83,-671.04 433.85,-761.43 330.02,-90.46 671,103.83 761.39,433.85 17.79,64.86 29.85,145.95 43.26,213.5 431.76,2168.5 -881.46,4333.36 -3047.09,4926.81 -2264.83,620.57 -4603.97,-712.24 -5224.57,-2977.1 -620.61,-2264.84 712.31,-4603.97 2977.14,-5224.58z"/>
 </g>
</svg>
