<svg width="1568" height="393" viewBox="0 0 1568 393" fill="none" xmlns="http://www.w3.org/2000/svg">
<path d="M832.795 347.822L837.546 347.822L837.546 322.638L847.175 322.638L847.175 318.39L823.126 318.39L823.126 322.638L832.797 322.638L832.797 347.822L832.795 347.822ZM898.235 343.198L881.209 343.198L881.209 335.293L897.438 335.293L897.438 330.921L881.209 330.921L881.209 322.975L898.11 322.975L898.11 318.392L876.499 318.392L876.499 347.824L898.235 347.824L898.235 343.2L898.235 343.198ZM950.432 340.801C949.423 341.81 948.217 342.594 946.818 343.155C945.417 343.715 944.015 343.996 942.614 343.996C939.054 343.996 936.363 342.951 934.54 340.864C932.718 338.776 931.793 336.246 931.765 333.275C931.736 330.303 932.661 327.739 934.54 325.58C936.418 323.422 939.109 322.342 942.614 322.342C945.64 322.342 948.178 323.351 950.224 325.368L953.378 322.342C950.407 319.37 946.82 317.885 942.616 317.885C940.093 317.885 937.816 318.32 935.785 319.188C933.753 320.056 932.12 321.226 930.885 322.698C929.652 324.17 928.713 325.809 928.069 327.618C927.424 329.425 927.102 331.324 927.102 333.314C927.102 335.305 927.418 337.183 928.049 338.947C928.68 340.713 929.611 342.312 930.844 343.741C932.077 345.17 933.704 346.307 935.72 347.145C937.739 347.986 940.036 348.408 942.616 348.408C947.045 348.408 950.73 346.949 953.674 344.035L950.436 340.797L950.432 340.801ZM1008.31 347.822L1008.31 318.39L1003.64 318.39L1003.64 331.215L988.084 331.215L988.084 318.39L983.374 318.39L983.374 347.822L988.084 347.822L988.084 335.587L1003.64 335.587L1003.64 347.822L1008.31 347.822ZM1044.23 318.39L1040.62 318.39L1040.62 347.822L1045.37 347.822L1045.37 327.052L1062.06 347.822L1065.63 347.822L1065.63 318.39L1060.92 318.39L1060.92 339.329L1044.23 318.39L1044.23 318.39ZM1111.27 317.843C1106.85 317.843 1103.22 319.294 1100.38 322.195C1097.55 325.095 1096.14 328.788 1096.14 333.273C1096.14 335.262 1096.45 337.147 1097.08 338.927C1097.71 340.707 1098.63 342.312 1099.82 343.741C1101.01 345.17 1102.58 346.312 1104.55 347.167C1106.51 348.022 1108.72 348.449 1111.19 348.449C1113.66 348.449 1115.87 348.035 1117.83 347.208C1119.79 346.381 1121.37 345.254 1122.56 343.823C1123.75 342.394 1124.66 340.775 1125.29 338.966C1125.92 337.159 1126.24 335.246 1126.24 333.227C1126.24 328.966 1124.93 325.344 1122.33 322.359C1119.72 319.374 1116.03 317.867 1111.27 317.84L1111.27 317.843ZM1100.81 333.316C1100.81 330.009 1101.72 327.318 1103.56 325.242C1105.4 323.169 1107.97 322.132 1111.27 322.132C1113.54 322.159 1115.49 322.741 1117.1 323.876C1118.71 325.011 1119.86 326.393 1120.54 328.018C1121.23 329.645 1121.58 331.411 1121.58 333.316C1121.58 336.401 1120.71 338.97 1118.97 341.03C1117.23 343.09 1114.64 344.121 1111.19 344.121C1109.45 344.121 1107.9 343.806 1106.54 343.174C1105.18 342.543 1104.1 341.704 1103.28 340.652C1102.47 339.601 1101.86 338.453 1101.46 337.204C1101.05 335.958 1100.83 334.66 1100.8 333.316L1100.81 333.316ZM1156.75 318.39L1156.75 347.822L1176.97 347.822L1176.97 343.449L1161.46 343.449L1161.46 318.39L1156.75 318.39ZM1218.95 317.843C1214.52 317.843 1210.89 319.294 1208.06 322.195C1205.23 325.095 1203.81 328.788 1203.81 333.273C1203.81 335.262 1204.13 337.147 1204.76 338.927C1205.39 340.707 1206.3 342.312 1207.49 343.741C1208.68 345.17 1210.26 346.312 1212.22 347.167C1214.18 348.022 1216.4 348.449 1218.86 348.449C1221.33 348.449 1223.54 348.035 1225.51 347.208C1227.47 346.381 1229.05 345.254 1230.24 343.823C1231.43 342.394 1232.34 340.775 1232.97 338.966C1233.6 337.159 1233.91 335.246 1233.91 333.227C1233.91 328.966 1232.61 325.344 1230 322.359C1227.4 319.374 1223.71 317.867 1218.95 317.84L1218.95 317.843ZM1208.48 333.316C1208.48 330.009 1209.4 327.318 1211.24 325.242C1213.07 323.169 1215.64 322.132 1218.95 322.132C1221.22 322.159 1223.16 322.741 1224.77 323.876C1226.38 325.011 1227.54 326.393 1228.22 328.018C1228.91 329.645 1229.25 331.411 1229.25 333.316C1229.25 336.401 1228.38 338.97 1226.65 341.03C1224.91 343.09 1222.32 344.121 1218.87 344.121C1217.13 344.121 1215.58 343.806 1214.22 343.174C1212.86 342.543 1211.77 341.704 1210.96 340.652C1210.15 339.601 1209.54 338.453 1209.13 337.204C1208.73 335.958 1208.51 334.66 1208.48 333.316L1208.48 333.316ZM1288.98 322.132C1285.98 319.161 1282.35 317.675 1278.09 317.675C1273.27 317.675 1269.48 319.182 1266.73 322.195C1263.99 325.207 1262.61 328.943 1262.61 333.4C1262.61 335.419 1262.92 337.302 1263.54 339.055C1264.16 340.807 1265.07 342.39 1266.27 343.806C1267.48 345.221 1269.09 346.342 1271.13 347.169C1273.16 347.996 1275.48 348.41 1278.09 348.41C1282.68 348.41 1286.54 346.701 1289.65 343.28L1289.65 331.213L1277.08 331.213L1277.08 335.417L1285.27 335.417L1285.27 341.387C1283.2 343.125 1280.8 343.994 1278.09 343.994C1274.5 343.994 1271.79 342.971 1269.97 340.924C1268.15 338.878 1267.24 336.369 1267.24 333.398C1267.21 330.176 1268.18 327.469 1270.14 325.284C1272.1 323.098 1274.75 322.005 1278.09 322.005C1279.49 322.005 1280.91 322.277 1282.35 322.824C1283.8 323.371 1285.02 324.149 1286.03 325.158L1288.98 322.132L1288.98 322.132ZM1325.24 347.82L1325.24 318.388L1320.57 318.388L1320.57 347.82L1325.24 347.82ZM1379.29 343.196L1362.26 343.196L1362.26 335.291L1378.49 335.291L1378.49 330.919L1362.26 330.919L1362.26 322.973L1379.16 322.973L1379.16 318.39L1357.55 318.39L1357.55 347.822L1379.29 347.822L1379.29 343.198L1379.29 343.196ZM1431.4 322.51C1429.33 319.204 1425.67 317.549 1420.43 317.549C1419.03 317.549 1417.68 317.712 1416.39 318.034C1415.11 318.357 1413.9 318.839 1412.78 319.484C1411.66 320.129 1410.76 321.013 1410.09 322.134C1409.42 323.255 1409.08 324.545 1409.08 326.001C1409.08 327.206 1409.3 328.278 1409.73 329.217C1410.17 330.156 1410.71 330.921 1411.37 331.509C1412.03 332.097 1412.89 332.6 1413.96 333.022C1415.02 333.443 1416.04 333.765 1417 333.988C1417.97 334.213 1419.13 334.409 1420.47 334.576C1422.83 334.884 1424.67 335.395 1426 336.111C1427.33 336.826 1428 337.926 1428 339.411C1428 340.562 1427.61 341.52 1426.84 342.29C1426.07 343.061 1425.15 343.586 1424.09 343.868C1423.02 344.149 1421.85 344.288 1420.56 344.288C1416.35 344.288 1413.3 342.677 1411.39 339.452L1407.86 341.806C1410.27 346.263 1414.49 348.492 1420.51 348.492C1422.7 348.492 1424.67 348.206 1426.42 347.63C1428.17 347.055 1429.66 346.067 1430.88 344.666C1432.1 343.265 1432.71 341.512 1432.71 339.411C1432.71 337.841 1432.39 336.489 1431.76 335.354C1431.13 334.219 1430.21 333.322 1429.01 332.663C1427.8 332.004 1426.58 331.507 1425.35 331.171C1424.12 330.834 1422.63 330.54 1420.89 330.289C1418.57 329.952 1416.79 329.49 1415.58 328.902C1414.36 328.314 1413.75 327.375 1413.75 326.085C1413.75 324.711 1414.38 323.625 1415.64 322.826C1416.9 322.028 1418.54 321.628 1420.56 321.628C1422.1 321.656 1423.52 321.957 1424.82 322.532C1426.13 323.106 1427.13 323.898 1427.83 324.907L1431.4 322.51L1431.4 322.51Z" fill="url(#paint0_linear_643_2)"/>
<mask id="path-2-inside-1_643_2" fill="white">
<path fill-rule="evenodd" clip-rule="evenodd" d="M1330.99 166.614C1331.6 166.443 1332.22 166.293 1332.84 166.155L1332.84 194.105C1332.84 198.503 1336.44 202.102 1340.84 202.102L1340.84 202.102C1345.24 202.102 1348.84 198.503 1348.84 194.105L1348.84 166.216C1361.62 169.133 1372.43 178.811 1376.13 192.341C1381.5 211.913 1369.98 232.125 1350.41 237.488C1330.84 242.85 1310.62 231.331 1305.26 211.761C1299.9 192.19 1311.42 171.977 1330.99 166.614L1330.99 166.614ZM152.275 113.175L283.822 113.175C287.221 113.175 290.323 114.068 293.128 115.852C295.933 117.638 298.014 120.058 299.375 123.118C300.735 126.177 301.201 129.364 300.778 132.679C300.353 135.993 299.036 138.925 296.825 141.475L194.85 257.725L288.922 257.725C293.681 257.725 297.717 259.383 301.031 262.697C304.345 266.011 306.003 270.047 306.003 274.806C306.003 279.565 304.347 283.601 301.031 286.915C297.717 290.229 293.681 291.885 288.922 291.885L157.12 291.885C153.719 291.885 150.619 290.994 147.816 289.208C145.011 287.424 142.929 285.002 141.569 281.942C140.209 278.883 139.743 275.696 140.168 272.381C140.593 269.067 141.995 266.135 144.374 263.585L246.349 147.333L152.277 147.333C147.518 147.333 143.482 145.675 140.168 142.361C136.853 139.047 135.195 135.011 135.195 130.252C135.195 125.493 136.852 121.458 140.168 118.143C143.482 114.829 147.518 113.171 152.277 113.171L152.275 113.175ZM367.479 238.605L367.479 166.457C367.479 158.98 368.88 152.012 371.685 145.552C374.49 139.094 378.271 133.484 383.029 128.725C387.788 123.966 393.439 120.185 399.983 117.381C406.526 114.576 413.453 113.175 420.761 113.175L479.652 113.175C487.129 113.175 494.097 114.576 500.557 117.381C507.015 120.185 512.666 124.009 517.511 128.853C522.354 133.698 526.178 139.348 528.983 145.807C531.788 152.265 533.189 159.233 533.189 166.712L533.189 170.791C533.189 178.268 531.788 185.236 528.983 191.696C526.178 198.154 522.354 203.805 517.511 208.648C512.668 213.493 507.015 217.315 500.557 220.122C494.099 222.927 487.131 224.328 479.652 224.328L401.64 224.328L401.64 238.605C401.64 243.873 403.51 248.377 407.249 252.115C410.989 255.855 415.493 257.723 420.761 257.723L515.598 257.723C520.357 257.723 524.393 259.381 527.707 262.695C531.021 266.01 532.677 270.045 532.677 274.804C532.677 279.563 531.021 283.599 527.707 286.913C524.393 290.227 520.357 291.883 515.598 291.883L420.761 291.883C413.453 291.883 406.526 290.482 399.983 287.677C393.439 284.873 387.788 281.092 383.029 276.333C378.271 271.574 374.49 265.923 371.685 259.379C368.88 252.836 367.479 245.91 367.479 238.603L367.479 238.605ZM401.64 166.457L401.64 190.167L479.652 190.167C485.091 190.167 489.681 188.297 493.419 184.558C497.158 180.818 499.026 176.23 499.026 170.791L499.026 166.712C499.026 161.273 497.158 156.683 493.419 152.945C489.681 149.205 485.091 147.337 479.652 147.337L420.761 147.337C415.493 147.337 410.989 149.164 407.249 152.818C403.511 156.473 401.64 161.018 401.64 166.457ZM615.444 257.725L708.752 257.725C714.021 257.725 718.483 255.898 722.137 252.244C725.792 248.591 727.617 244.046 727.617 238.607C727.617 233.336 725.79 228.875 722.137 225.222C718.483 221.567 714.021 219.74 708.752 219.74L651.647 219.74C644.339 219.74 637.455 218.338 630.997 215.534C624.539 212.729 618.888 208.905 614.043 204.06C609.2 199.217 605.376 193.566 602.571 187.106C599.766 180.648 598.365 173.764 598.365 166.455C598.365 159.148 599.766 152.263 602.571 145.805C605.376 139.346 609.2 133.696 614.043 128.851C618.886 124.007 624.537 120.184 630.997 117.379C637.455 114.574 644.339 113.173 651.647 113.173L744.698 113.173C749.457 113.173 753.495 114.829 756.809 118.145C760.124 121.459 761.782 125.495 761.782 130.254C761.782 135.013 760.124 139.049 756.809 142.363C753.495 145.677 749.457 147.335 744.698 147.335L651.647 147.335C646.208 147.335 641.663 149.205 638.008 152.943C634.354 156.681 632.528 161.187 632.528 166.455C632.528 171.724 634.354 176.228 638.008 179.967C641.663 183.705 646.208 185.575 651.647 185.575L708.752 185.575C716.061 185.575 722.944 186.978 729.403 189.783C735.861 192.586 741.47 196.367 746.229 201.126C750.988 205.885 754.769 211.494 757.574 217.952C760.378 224.41 761.78 231.294 761.78 238.603C761.78 245.91 760.42 252.793 757.701 259.251C754.983 265.71 751.2 271.36 746.357 276.205C741.513 281.051 735.904 284.873 729.53 287.677C723.156 290.482 716.231 291.883 708.752 291.883L615.444 291.883C610.685 291.883 606.648 290.227 603.335 286.913C600.021 283.599 598.363 279.563 598.363 274.804C598.363 270.045 600.021 266.01 603.335 262.695C606.65 259.381 610.685 257.723 615.444 257.723L615.444 257.725ZM819.943 274.806L819.943 130.256C819.943 125.497 821.601 121.461 824.915 118.147C828.23 114.833 832.265 113.175 837.024 113.175L910.191 113.175C922.598 113.175 934.24 115.513 945.118 120.185C955.996 124.86 965.471 131.275 973.544 139.433C981.617 147.59 987.989 157.067 992.664 167.859C997.339 178.65 999.675 190.165 999.675 202.404C999.675 214.64 997.339 226.198 992.664 237.076C987.989 247.952 981.659 257.472 973.672 265.627C965.683 273.785 956.249 280.202 945.373 284.875C934.495 289.549 922.768 291.885 910.191 291.885L837.024 291.885C832.265 291.885 828.23 290.229 824.915 286.915C821.601 283.601 819.943 279.565 819.943 274.806ZM854.106 147.337L854.106 257.725L910.193 257.725C917.841 257.725 925.064 256.28 931.863 253.391C938.66 250.502 944.524 246.592 949.452 241.664C954.381 236.735 958.289 230.873 961.178 224.073C964.069 217.274 965.512 210.051 965.512 202.404C965.512 194.756 964.067 187.574 961.178 180.861C958.289 174.148 954.338 168.284 949.324 163.27C944.311 158.257 938.446 154.348 931.733 151.544C925.018 148.739 917.839 147.337 910.191 147.337L854.104 147.337L854.106 147.337ZM1122.72 113.175L1193.08 113.175C1197.84 113.175 1201.88 114.831 1205.19 118.147C1208.51 121.461 1210.17 125.497 1210.17 130.256C1210.17 135.015 1208.51 139.05 1205.19 142.365C1201.88 145.679 1197.84 147.337 1193.08 147.337L1122.72 147.337C1117.28 147.337 1112.65 149.25 1108.83 153.072C1105 156.896 1103.09 161.528 1103.09 166.967L1103.09 274.806C1103.09 279.565 1101.43 283.601 1098.12 286.915C1094.81 290.229 1090.77 291.885 1086.01 291.885C1081.25 291.885 1077.22 290.229 1073.9 286.915C1070.59 283.601 1068.93 279.565 1068.93 274.806L1068.93 166.967C1068.93 159.489 1070.33 152.522 1073.14 146.061C1075.94 139.603 1079.81 133.909 1084.74 128.98C1089.66 124.051 1095.4 120.184 1101.95 117.379C1108.49 114.574 1115.41 113.173 1122.72 113.173L1122.72 113.175ZM1316.18 112.569C1337.78 106.65 1359.69 108.878 1378.64 117.385C1381.8 118.804 1386.56 120.764 1388.91 123.167C1390.47 124.756 1391.66 126.753 1392.28 129.051C1394.26 136.254 1390.02 143.692 1382.82 145.664C1379.59 146.547 1376.32 146.187 1373.51 144.868C1372.17 144.241 1370.6 143.196 1369.11 142.482C1355.31 135.891 1339.17 134.039 1323.26 138.398C1288.11 148.029 1267.42 184.336 1277.05 219.491C1286.69 254.643 1322.99 275.331 1358.15 265.7C1392.13 256.388 1412.59 222.147 1405.21 188.117L1405.23 188.105C1405.02 187.594 1404.84 187.063 1404.69 186.516C1402.71 179.313 1406.95 171.875 1414.16 169.901C1421.36 167.927 1428.8 172.167 1430.77 179.368C1431.16 180.783 1431.42 182.553 1431.71 184.027C1441.13 231.343 1412.48 278.581 1365.22 291.531C1315.81 305.072 1264.76 275.99 1251.22 226.57C1237.68 177.151 1266.77 126.111 1316.19 112.569L1316.18 112.569ZM1398.39 143.784C1405.07 141.955 1411.96 145.883 1413.79 152.557C1415.62 159.233 1411.69 166.126 1405.01 167.955C1398.34 169.783 1391.44 165.855 1389.61 159.182C1387.79 152.506 1391.71 145.613 1398.39 143.784Z"/>
</mask>
<path fill-rule="evenodd" clip-rule="evenodd" d="M1330.99 166.614C1331.6 166.443 1332.22 166.293 1332.84 166.155L1332.84 194.105C1332.84 198.503 1336.44 202.102 1340.84 202.102L1340.84 202.102C1345.24 202.102 1348.84 198.503 1348.84 194.105L1348.84 166.216C1361.62 169.133 1372.43 178.811 1376.13 192.341C1381.5 211.913 1369.98 232.125 1350.41 237.488C1330.84 242.85 1310.62 231.331 1305.26 211.761C1299.9 192.19 1311.42 171.977 1330.99 166.614L1330.99 166.614ZM152.275 113.175L283.822 113.175C287.221 113.175 290.323 114.068 293.128 115.852C295.933 117.638 298.014 120.058 299.375 123.118C300.735 126.177 301.201 129.364 300.778 132.679C300.353 135.993 299.036 138.925 296.825 141.475L194.85 257.725L288.922 257.725C293.681 257.725 297.717 259.383 301.031 262.697C304.345 266.011 306.003 270.047 306.003 274.806C306.003 279.565 304.347 283.601 301.031 286.915C297.717 290.229 293.681 291.885 288.922 291.885L157.12 291.885C153.719 291.885 150.619 290.994 147.816 289.208C145.011 287.424 142.929 285.002 141.569 281.942C140.209 278.883 139.743 275.696 140.168 272.381C140.593 269.067 141.995 266.135 144.374 263.585L246.349 147.333L152.277 147.333C147.518 147.333 143.482 145.675 140.168 142.361C136.853 139.047 135.195 135.011 135.195 130.252C135.195 125.493 136.852 121.458 140.168 118.143C143.482 114.829 147.518 113.171 152.277 113.171L152.275 113.175ZM367.479 238.605L367.479 166.457C367.479 158.98 368.88 152.012 371.685 145.552C374.49 139.094 378.271 133.484 383.029 128.725C387.788 123.966 393.439 120.185 399.983 117.381C406.526 114.576 413.453 113.175 420.761 113.175L479.652 113.175C487.129 113.175 494.097 114.576 500.557 117.381C507.015 120.185 512.666 124.009 517.511 128.853C522.354 133.698 526.178 139.348 528.983 145.807C531.788 152.265 533.189 159.233 533.189 166.712L533.189 170.791C533.189 178.268 531.788 185.236 528.983 191.696C526.178 198.154 522.354 203.805 517.511 208.648C512.668 213.493 507.015 217.315 500.557 220.122C494.099 222.927 487.131 224.328 479.652 224.328L401.64 224.328L401.64 238.605C401.64 243.873 403.51 248.377 407.249 252.115C410.989 255.855 415.493 257.723 420.761 257.723L515.598 257.723C520.357 257.723 524.393 259.381 527.707 262.695C531.021 266.01 532.677 270.045 532.677 274.804C532.677 279.563 531.021 283.599 527.707 286.913C524.393 290.227 520.357 291.883 515.598 291.883L420.761 291.883C413.453 291.883 406.526 290.482 399.983 287.677C393.439 284.873 387.788 281.092 383.029 276.333C378.271 271.574 374.49 265.923 371.685 259.379C368.88 252.836 367.479 245.91 367.479 238.603L367.479 238.605ZM401.64 166.457L401.64 190.167L479.652 190.167C485.091 190.167 489.681 188.297 493.419 184.558C497.158 180.818 499.026 176.23 499.026 170.791L499.026 166.712C499.026 161.273 497.158 156.683 493.419 152.945C489.681 149.205 485.091 147.337 479.652 147.337L420.761 147.337C415.493 147.337 410.989 149.164 407.249 152.818C403.511 156.473 401.64 161.018 401.64 166.457ZM615.444 257.725L708.752 257.725C714.021 257.725 718.483 255.898 722.137 252.244C725.792 248.591 727.617 244.046 727.617 238.607C727.617 233.336 725.79 228.875 722.137 225.222C718.483 221.567 714.021 219.74 708.752 219.74L651.647 219.74C644.339 219.74 637.455 218.338 630.997 215.534C624.539 212.729 618.888 208.905 614.043 204.06C609.2 199.217 605.376 193.566 602.571 187.106C599.766 180.648 598.365 173.764 598.365 166.455C598.365 159.148 599.766 152.263 602.571 145.805C605.376 139.346 609.2 133.696 614.043 128.851C618.886 124.007 624.537 120.184 630.997 117.379C637.455 114.574 644.339 113.173 651.647 113.173L744.698 113.173C749.457 113.173 753.495 114.829 756.809 118.145C760.124 121.459 761.782 125.495 761.782 130.254C761.782 135.013 760.124 139.049 756.809 142.363C753.495 145.677 749.457 147.335 744.698 147.335L651.647 147.335C646.208 147.335 641.663 149.205 638.008 152.943C634.354 156.681 632.528 161.187 632.528 166.455C632.528 171.724 634.354 176.228 638.008 179.967C641.663 183.705 646.208 185.575 651.647 185.575L708.752 185.575C716.061 185.575 722.944 186.978 729.403 189.783C735.861 192.586 741.47 196.367 746.229 201.126C750.988 205.885 754.769 211.494 757.574 217.952C760.378 224.41 761.78 231.294 761.78 238.603C761.78 245.91 760.42 252.793 757.701 259.251C754.983 265.71 751.2 271.36 746.357 276.205C741.513 281.051 735.904 284.873 729.53 287.677C723.156 290.482 716.231 291.883 708.752 291.883L615.444 291.883C610.685 291.883 606.648 290.227 603.335 286.913C600.021 283.599 598.363 279.563 598.363 274.804C598.363 270.045 600.021 266.01 603.335 262.695C606.65 259.381 610.685 257.723 615.444 257.723L615.444 257.725ZM819.943 274.806L819.943 130.256C819.943 125.497 821.601 121.461 824.915 118.147C828.23 114.833 832.265 113.175 837.024 113.175L910.191 113.175C922.598 113.175 934.24 115.513 945.118 120.185C955.996 124.86 965.471 131.275 973.544 139.433C981.617 147.59 987.989 157.067 992.664 167.859C997.339 178.65 999.675 190.165 999.675 202.404C999.675 214.64 997.339 226.198 992.664 237.076C987.989 247.952 981.659 257.472 973.672 265.627C965.683 273.785 956.249 280.202 945.373 284.875C934.495 289.549 922.768 291.885 910.191 291.885L837.024 291.885C832.265 291.885 828.23 290.229 824.915 286.915C821.601 283.601 819.943 279.565 819.943 274.806ZM854.106 147.337L854.106 257.725L910.193 257.725C917.841 257.725 925.064 256.28 931.863 253.391C938.66 250.502 944.524 246.592 949.452 241.664C954.381 236.735 958.289 230.873 961.178 224.073C964.069 217.274 965.512 210.051 965.512 202.404C965.512 194.756 964.067 187.574 961.178 180.861C958.289 174.148 954.338 168.284 949.324 163.27C944.311 158.257 938.446 154.348 931.733 151.544C925.018 148.739 917.839 147.337 910.191 147.337L854.104 147.337L854.106 147.337ZM1122.72 113.175L1193.08 113.175C1197.84 113.175 1201.88 114.831 1205.19 118.147C1208.51 121.461 1210.17 125.497 1210.17 130.256C1210.17 135.015 1208.51 139.05 1205.19 142.365C1201.88 145.679 1197.84 147.337 1193.08 147.337L1122.72 147.337C1117.28 147.337 1112.65 149.25 1108.83 153.072C1105 156.896 1103.09 161.528 1103.09 166.967L1103.09 274.806C1103.09 279.565 1101.43 283.601 1098.12 286.915C1094.81 290.229 1090.77 291.885 1086.01 291.885C1081.25 291.885 1077.22 290.229 1073.9 286.915C1070.59 283.601 1068.93 279.565 1068.93 274.806L1068.93 166.967C1068.93 159.489 1070.33 152.522 1073.14 146.061C1075.94 139.603 1079.81 133.909 1084.74 128.98C1089.66 124.051 1095.4 120.184 1101.95 117.379C1108.49 114.574 1115.41 113.173 1122.72 113.173L1122.72 113.175ZM1316.18 112.569C1337.78 106.65 1359.69 108.878 1378.64 117.385C1381.8 118.804 1386.56 120.764 1388.91 123.167C1390.47 124.756 1391.66 126.753 1392.28 129.051C1394.26 136.254 1390.02 143.692 1382.82 145.664C1379.59 146.547 1376.32 146.187 1373.51 144.868C1372.17 144.241 1370.6 143.196 1369.11 142.482C1355.31 135.891 1339.17 134.039 1323.26 138.398C1288.11 148.029 1267.42 184.336 1277.05 219.491C1286.69 254.643 1322.99 275.331 1358.15 265.7C1392.13 256.388 1412.59 222.147 1405.21 188.117L1405.23 188.105C1405.02 187.594 1404.84 187.063 1404.69 186.516C1402.71 179.313 1406.95 171.875 1414.16 169.901C1421.36 167.927 1428.8 172.167 1430.77 179.368C1431.16 180.783 1431.42 182.553 1431.71 184.027C1441.13 231.343 1412.48 278.581 1365.22 291.531C1315.81 305.072 1264.76 275.99 1251.22 226.57C1237.68 177.151 1266.77 126.111 1316.19 112.569L1316.18 112.569ZM1398.39 143.784C1405.07 141.955 1411.96 145.883 1413.79 152.557C1415.62 159.233 1411.69 166.126 1405.01 167.955C1398.34 169.783 1391.44 165.855 1389.61 159.182C1387.79 152.506 1391.71 145.613 1398.39 143.784Z" fill="#2C1758" fill-opacity="0.09" stroke="#9F63CF" stroke-width="2" mask="url(#path-2-inside-1_643_2)"/>
<mask id="path-3-inside-2_643_2" fill="white">
<path fill-rule="evenodd" clip-rule="evenodd" d="M1330.99 166.614C1331.6 166.443 1332.22 166.293 1332.84 166.155L1332.84 194.105C1332.84 198.503 1336.44 202.102 1340.84 202.102L1340.84 202.102C1345.24 202.102 1348.84 198.503 1348.84 194.105L1348.84 166.216C1361.62 169.133 1372.43 178.811 1376.13 192.341C1381.5 211.913 1369.98 232.125 1350.41 237.488C1330.84 242.85 1310.62 231.331 1305.26 211.761C1299.9 192.19 1311.42 171.977 1330.99 166.614L1330.99 166.614ZM152.275 113.175L283.822 113.175C287.221 113.175 290.323 114.068 293.128 115.852C295.933 117.638 298.014 120.058 299.375 123.118C300.735 126.177 301.201 129.364 300.778 132.679C300.353 135.993 299.036 138.925 296.825 141.475L194.85 257.725L288.922 257.725C293.681 257.725 297.717 259.383 301.031 262.697C304.345 266.011 306.003 270.047 306.003 274.806C306.003 279.565 304.347 283.601 301.031 286.915C297.717 290.229 293.681 291.885 288.922 291.885L157.12 291.885C153.719 291.885 150.619 290.994 147.816 289.208C145.011 287.424 142.929 285.002 141.569 281.942C140.209 278.883 139.743 275.696 140.168 272.381C140.593 269.067 141.995 266.135 144.374 263.585L246.349 147.333L152.277 147.333C147.518 147.333 143.482 145.675 140.168 142.361C136.853 139.047 135.195 135.011 135.195 130.252C135.195 125.493 136.852 121.458 140.168 118.143C143.482 114.829 147.518 113.171 152.277 113.171L152.275 113.175ZM367.479 238.605L367.479 166.457C367.479 158.98 368.88 152.012 371.685 145.552C374.49 139.094 378.271 133.484 383.029 128.725C387.788 123.966 393.439 120.185 399.983 117.381C406.526 114.576 413.453 113.175 420.761 113.175L479.652 113.175C487.129 113.175 494.097 114.576 500.557 117.381C507.015 120.185 512.666 124.009 517.511 128.853C522.354 133.698 526.178 139.348 528.983 145.807C531.788 152.265 533.189 159.233 533.189 166.712L533.189 170.791C533.189 178.268 531.788 185.236 528.983 191.696C526.178 198.154 522.354 203.805 517.511 208.648C512.668 213.493 507.015 217.315 500.557 220.122C494.099 222.927 487.131 224.328 479.652 224.328L401.64 224.328L401.64 238.605C401.64 243.873 403.51 248.377 407.249 252.115C410.989 255.855 415.493 257.723 420.761 257.723L515.598 257.723C520.357 257.723 524.393 259.381 527.707 262.695C531.021 266.01 532.677 270.045 532.677 274.804C532.677 279.563 531.021 283.599 527.707 286.913C524.393 290.227 520.357 291.883 515.598 291.883L420.761 291.883C413.453 291.883 406.526 290.482 399.983 287.677C393.439 284.873 387.788 281.092 383.029 276.333C378.271 271.574 374.49 265.923 371.685 259.379C368.88 252.836 367.479 245.91 367.479 238.603L367.479 238.605ZM401.64 166.457L401.64 190.167L479.652 190.167C485.091 190.167 489.681 188.297 493.419 184.558C497.158 180.818 499.026 176.23 499.026 170.791L499.026 166.712C499.026 161.273 497.158 156.683 493.419 152.945C489.681 149.205 485.091 147.337 479.652 147.337L420.761 147.337C415.493 147.337 410.989 149.164 407.249 152.818C403.511 156.473 401.64 161.018 401.64 166.457ZM615.444 257.725L708.752 257.725C714.021 257.725 718.483 255.898 722.137 252.244C725.792 248.591 727.617 244.046 727.617 238.607C727.617 233.336 725.79 228.875 722.137 225.222C718.483 221.567 714.021 219.74 708.752 219.74L651.647 219.74C644.339 219.74 637.455 218.338 630.997 215.534C624.539 212.729 618.888 208.905 614.043 204.06C609.2 199.217 605.376 193.566 602.571 187.106C599.766 180.648 598.365 173.764 598.365 166.455C598.365 159.148 599.766 152.263 602.571 145.805C605.376 139.346 609.2 133.696 614.043 128.851C618.886 124.007 624.537 120.184 630.997 117.379C637.455 114.574 644.339 113.173 651.647 113.173L744.698 113.173C749.457 113.173 753.495 114.829 756.809 118.145C760.124 121.459 761.782 125.495 761.782 130.254C761.782 135.013 760.124 139.049 756.809 142.363C753.495 145.677 749.457 147.335 744.698 147.335L651.647 147.335C646.208 147.335 641.663 149.205 638.008 152.943C634.354 156.681 632.528 161.187 632.528 166.455C632.528 171.724 634.354 176.228 638.008 179.967C641.663 183.705 646.208 185.575 651.647 185.575L708.752 185.575C716.061 185.575 722.944 186.978 729.403 189.783C735.861 192.586 741.47 196.367 746.229 201.126C750.988 205.885 754.769 211.494 757.574 217.952C760.378 224.41 761.78 231.294 761.78 238.603C761.78 245.91 760.42 252.793 757.701 259.251C754.983 265.71 751.2 271.36 746.357 276.205C741.513 281.051 735.904 284.873 729.53 287.677C723.156 290.482 716.231 291.883 708.752 291.883L615.444 291.883C610.685 291.883 606.648 290.227 603.335 286.913C600.021 283.599 598.363 279.563 598.363 274.804C598.363 270.045 600.021 266.01 603.335 262.695C606.65 259.381 610.685 257.723 615.444 257.723L615.444 257.725ZM819.943 274.806L819.943 130.256C819.943 125.497 821.601 121.461 824.915 118.147C828.23 114.833 832.265 113.175 837.024 113.175L910.191 113.175C922.598 113.175 934.24 115.513 945.118 120.185C955.996 124.86 965.471 131.275 973.544 139.433C981.617 147.59 987.989 157.067 992.664 167.859C997.339 178.65 999.675 190.165 999.675 202.404C999.675 214.64 997.339 226.198 992.664 237.076C987.989 247.952 981.659 257.472 973.672 265.627C965.683 273.785 956.249 280.202 945.373 284.875C934.495 289.549 922.768 291.885 910.191 291.885L837.024 291.885C832.265 291.885 828.23 290.229 824.915 286.915C821.601 283.601 819.943 279.565 819.943 274.806ZM854.106 147.337L854.106 257.725L910.193 257.725C917.841 257.725 925.064 256.28 931.863 253.391C938.66 250.502 944.524 246.592 949.452 241.664C954.381 236.735 958.289 230.873 961.178 224.073C964.069 217.274 965.512 210.051 965.512 202.404C965.512 194.756 964.067 187.574 961.178 180.861C958.289 174.148 954.338 168.284 949.324 163.27C944.311 158.257 938.446 154.348 931.733 151.544C925.018 148.739 917.839 147.337 910.191 147.337L854.104 147.337L854.106 147.337ZM1122.72 113.175L1193.08 113.175C1197.84 113.175 1201.88 114.831 1205.19 118.147C1208.51 121.461 1210.17 125.497 1210.17 130.256C1210.17 135.015 1208.51 139.05 1205.19 142.365C1201.88 145.679 1197.84 147.337 1193.08 147.337L1122.72 147.337C1117.28 147.337 1112.65 149.25 1108.83 153.072C1105 156.896 1103.09 161.528 1103.09 166.967L1103.09 274.806C1103.09 279.565 1101.43 283.601 1098.12 286.915C1094.81 290.229 1090.77 291.885 1086.01 291.885C1081.25 291.885 1077.22 290.229 1073.9 286.915C1070.59 283.601 1068.93 279.565 1068.93 274.806L1068.93 166.967C1068.93 159.489 1070.33 152.522 1073.14 146.061C1075.94 139.603 1079.81 133.909 1084.74 128.98C1089.66 124.051 1095.4 120.184 1101.95 117.379C1108.49 114.574 1115.41 113.173 1122.72 113.173L1122.72 113.175ZM1316.18 112.569C1337.78 106.65 1359.69 108.878 1378.64 117.385C1381.8 118.804 1386.56 120.764 1388.91 123.167C1390.47 124.756 1391.66 126.753 1392.28 129.051C1394.26 136.254 1390.02 143.692 1382.82 145.664C1379.59 146.547 1376.32 146.187 1373.51 144.868C1372.17 144.241 1370.6 143.196 1369.11 142.482C1355.31 135.891 1339.17 134.039 1323.26 138.398C1288.11 148.029 1267.42 184.336 1277.05 219.491C1286.69 254.643 1322.99 275.331 1358.15 265.7C1392.13 256.388 1412.59 222.147 1405.21 188.117L1405.23 188.105C1405.02 187.594 1404.84 187.063 1404.69 186.516C1402.71 179.313 1406.95 171.875 1414.16 169.901C1421.36 167.927 1428.8 172.167 1430.77 179.368C1431.16 180.783 1431.42 182.553 1431.71 184.027C1441.13 231.343 1412.48 278.581 1365.22 291.531C1315.81 305.072 1264.76 275.99 1251.22 226.57C1237.68 177.151 1266.77 126.111 1316.19 112.569L1316.18 112.569ZM1398.39 143.784C1405.07 141.955 1411.96 145.883 1413.79 152.557C1415.62 159.233 1411.69 166.126 1405.01 167.955C1398.34 169.783 1391.44 165.855 1389.61 159.182C1387.79 152.506 1391.71 145.613 1398.39 143.784Z"/>
</mask>
<path fill-rule="evenodd" clip-rule="evenodd" d="M1330.99 166.614C1331.6 166.443 1332.22 166.293 1332.84 166.155L1332.84 194.105C1332.84 198.503 1336.44 202.102 1340.84 202.102L1340.84 202.102C1345.24 202.102 1348.84 198.503 1348.84 194.105L1348.84 166.216C1361.62 169.133 1372.43 178.811 1376.13 192.341C1381.5 211.913 1369.98 232.125 1350.41 237.488C1330.84 242.85 1310.62 231.331 1305.26 211.761C1299.9 192.19 1311.42 171.977 1330.99 166.614L1330.99 166.614ZM152.275 113.175L283.822 113.175C287.221 113.175 290.323 114.068 293.128 115.852C295.933 117.638 298.014 120.058 299.375 123.118C300.735 126.177 301.201 129.364 300.778 132.679C300.353 135.993 299.036 138.925 296.825 141.475L194.85 257.725L288.922 257.725C293.681 257.725 297.717 259.383 301.031 262.697C304.345 266.011 306.003 270.047 306.003 274.806C306.003 279.565 304.347 283.601 301.031 286.915C297.717 290.229 293.681 291.885 288.922 291.885L157.12 291.885C153.719 291.885 150.619 290.994 147.816 289.208C145.011 287.424 142.929 285.002 141.569 281.942C140.209 278.883 139.743 275.696 140.168 272.381C140.593 269.067 141.995 266.135 144.374 263.585L246.349 147.333L152.277 147.333C147.518 147.333 143.482 145.675 140.168 142.361C136.853 139.047 135.195 135.011 135.195 130.252C135.195 125.493 136.852 121.458 140.168 118.143C143.482 114.829 147.518 113.171 152.277 113.171L152.275 113.175ZM367.479 238.605L367.479 166.457C367.479 158.98 368.88 152.012 371.685 145.552C374.49 139.094 378.271 133.484 383.029 128.725C387.788 123.966 393.439 120.185 399.983 117.381C406.526 114.576 413.453 113.175 420.761 113.175L479.652 113.175C487.129 113.175 494.097 114.576 500.557 117.381C507.015 120.185 512.666 124.009 517.511 128.853C522.354 133.698 526.178 139.348 528.983 145.807C531.788 152.265 533.189 159.233 533.189 166.712L533.189 170.791C533.189 178.268 531.788 185.236 528.983 191.696C526.178 198.154 522.354 203.805 517.511 208.648C512.668 213.493 507.015 217.315 500.557 220.122C494.099 222.927 487.131 224.328 479.652 224.328L401.64 224.328L401.64 238.605C401.64 243.873 403.51 248.377 407.249 252.115C410.989 255.855 415.493 257.723 420.761 257.723L515.598 257.723C520.357 257.723 524.393 259.381 527.707 262.695C531.021 266.01 532.677 270.045 532.677 274.804C532.677 279.563 531.021 283.599 527.707 286.913C524.393 290.227 520.357 291.883 515.598 291.883L420.761 291.883C413.453 291.883 406.526 290.482 399.983 287.677C393.439 284.873 387.788 281.092 383.029 276.333C378.271 271.574 374.49 265.923 371.685 259.379C368.88 252.836 367.479 245.91 367.479 238.603L367.479 238.605ZM401.64 166.457L401.64 190.167L479.652 190.167C485.091 190.167 489.681 188.297 493.419 184.558C497.158 180.818 499.026 176.23 499.026 170.791L499.026 166.712C499.026 161.273 497.158 156.683 493.419 152.945C489.681 149.205 485.091 147.337 479.652 147.337L420.761 147.337C415.493 147.337 410.989 149.164 407.249 152.818C403.511 156.473 401.64 161.018 401.64 166.457ZM615.444 257.725L708.752 257.725C714.021 257.725 718.483 255.898 722.137 252.244C725.792 248.591 727.617 244.046 727.617 238.607C727.617 233.336 725.79 228.875 722.137 225.222C718.483 221.567 714.021 219.74 708.752 219.74L651.647 219.74C644.339 219.74 637.455 218.338 630.997 215.534C624.539 212.729 618.888 208.905 614.043 204.06C609.2 199.217 605.376 193.566 602.571 187.106C599.766 180.648 598.365 173.764 598.365 166.455C598.365 159.148 599.766 152.263 602.571 145.805C605.376 139.346 609.2 133.696 614.043 128.851C618.886 124.007 624.537 120.184 630.997 117.379C637.455 114.574 644.339 113.173 651.647 113.173L744.698 113.173C749.457 113.173 753.495 114.829 756.809 118.145C760.124 121.459 761.782 125.495 761.782 130.254C761.782 135.013 760.124 139.049 756.809 142.363C753.495 145.677 749.457 147.335 744.698 147.335L651.647 147.335C646.208 147.335 641.663 149.205 638.008 152.943C634.354 156.681 632.528 161.187 632.528 166.455C632.528 171.724 634.354 176.228 638.008 179.967C641.663 183.705 646.208 185.575 651.647 185.575L708.752 185.575C716.061 185.575 722.944 186.978 729.403 189.783C735.861 192.586 741.47 196.367 746.229 201.126C750.988 205.885 754.769 211.494 757.574 217.952C760.378 224.41 761.78 231.294 761.78 238.603C761.78 245.91 760.42 252.793 757.701 259.251C754.983 265.71 751.2 271.36 746.357 276.205C741.513 281.051 735.904 284.873 729.53 287.677C723.156 290.482 716.231 291.883 708.752 291.883L615.444 291.883C610.685 291.883 606.648 290.227 603.335 286.913C600.021 283.599 598.363 279.563 598.363 274.804C598.363 270.045 600.021 266.01 603.335 262.695C606.65 259.381 610.685 257.723 615.444 257.723L615.444 257.725ZM819.943 274.806L819.943 130.256C819.943 125.497 821.601 121.461 824.915 118.147C828.23 114.833 832.265 113.175 837.024 113.175L910.191 113.175C922.598 113.175 934.24 115.513 945.118 120.185C955.996 124.86 965.471 131.275 973.544 139.433C981.617 147.59 987.989 157.067 992.664 167.859C997.339 178.65 999.675 190.165 999.675 202.404C999.675 214.64 997.339 226.198 992.664 237.076C987.989 247.952 981.659 257.472 973.672 265.627C965.683 273.785 956.249 280.202 945.373 284.875C934.495 289.549 922.768 291.885 910.191 291.885L837.024 291.885C832.265 291.885 828.23 290.229 824.915 286.915C821.601 283.601 819.943 279.565 819.943 274.806ZM854.106 147.337L854.106 257.725L910.193 257.725C917.841 257.725 925.064 256.28 931.863 253.391C938.66 250.502 944.524 246.592 949.452 241.664C954.381 236.735 958.289 230.873 961.178 224.073C964.069 217.274 965.512 210.051 965.512 202.404C965.512 194.756 964.067 187.574 961.178 180.861C958.289 174.148 954.338 168.284 949.324 163.27C944.311 158.257 938.446 154.348 931.733 151.544C925.018 148.739 917.839 147.337 910.191 147.337L854.104 147.337L854.106 147.337ZM1122.72 113.175L1193.08 113.175C1197.84 113.175 1201.88 114.831 1205.19 118.147C1208.51 121.461 1210.17 125.497 1210.17 130.256C1210.17 135.015 1208.51 139.05 1205.19 142.365C1201.88 145.679 1197.84 147.337 1193.08 147.337L1122.72 147.337C1117.28 147.337 1112.65 149.25 1108.83 153.072C1105 156.896 1103.09 161.528 1103.09 166.967L1103.09 274.806C1103.09 279.565 1101.43 283.601 1098.12 286.915C1094.81 290.229 1090.77 291.885 1086.01 291.885C1081.25 291.885 1077.22 290.229 1073.9 286.915C1070.59 283.601 1068.93 279.565 1068.93 274.806L1068.93 166.967C1068.93 159.489 1070.33 152.522 1073.14 146.061C1075.94 139.603 1079.81 133.909 1084.74 128.98C1089.66 124.051 1095.4 120.184 1101.95 117.379C1108.49 114.574 1115.41 113.173 1122.72 113.173L1122.72 113.175ZM1316.18 112.569C1337.78 106.65 1359.69 108.878 1378.64 117.385C1381.8 118.804 1386.56 120.764 1388.91 123.167C1390.47 124.756 1391.66 126.753 1392.28 129.051C1394.26 136.254 1390.02 143.692 1382.82 145.664C1379.59 146.547 1376.32 146.187 1373.51 144.868C1372.17 144.241 1370.6 143.196 1369.11 142.482C1355.31 135.891 1339.17 134.039 1323.26 138.398C1288.11 148.029 1267.42 184.336 1277.05 219.491C1286.69 254.643 1322.99 275.331 1358.15 265.7C1392.13 256.388 1412.59 222.147 1405.21 188.117L1405.23 188.105C1405.02 187.594 1404.84 187.063 1404.69 186.516C1402.71 179.313 1406.95 171.875 1414.16 169.901C1421.36 167.927 1428.8 172.167 1430.77 179.368C1431.16 180.783 1431.42 182.553 1431.71 184.027C1441.13 231.343 1412.48 278.581 1365.22 291.531C1315.81 305.072 1264.76 275.99 1251.22 226.57C1237.68 177.151 1266.77 126.111 1316.19 112.569L1316.18 112.569ZM1398.39 143.784C1405.07 141.955 1411.96 145.883 1413.79 152.557C1415.62 159.233 1411.69 166.126 1405.01 167.955C1398.34 169.783 1391.44 165.855 1389.61 159.182C1387.79 152.506 1391.71 145.613 1398.39 143.784Z" fill="#2C1758" fill-opacity="0.09" stroke="#9F63CF" stroke-width="2" mask="url(#path-3-inside-2_643_2)"/>
<path d="M163.431 44.0627L163.431 68.9841C163.431 72.9649 162.334 76.0421 160.141 78.2157C157.947 80.3894 155.103 81.3752 151.611 81.1714C148.361 81.0499 145.74 79.9327 143.751 77.8198C141.76 75.7069 140.764 72.763 140.764 68.9841L140.764 44.0627L134 44.0627L134 68.9841C134 74.7524 135.676 79.2408 139.027 82.4493C142.379 85.6579 146.573 87.3239 151.611 87.4473C157.014 87.6512 161.462 86.1361 164.956 82.908C168.449 79.6779 170.197 75.0366 170.197 68.9841L170.197 44.0627L163.433 44.0627L163.431 44.0627ZM207.914 86.6555L207.914 70.507C207.914 66.0382 206.704 62.5259 204.288 59.9662C201.871 57.4064 198.774 56.1265 194.995 56.1265C191.095 56.1265 187.724 57.7318 184.88 60.9403L184.513 56.5538L178.786 56.5538L178.786 86.6555L185.062 86.6555L185.062 70.9343C185.062 68.4157 185.854 66.2832 187.437 64.5369C189.021 62.7905 191.032 61.9164 193.47 61.9164C196.03 61.9164 198.019 62.6984 199.44 64.2625C200.863 65.8266 201.575 67.9277 201.575 70.5698L201.575 86.6555L207.912 86.6555L207.914 86.6555ZM216.2 44.0627L216.2 86.6555L222.476 86.6555L222.476 44.0627L216.2 44.0627ZM244.84 56.005C240.25 56.005 236.522 57.4887 233.658 60.4542C230.795 63.4197 229.362 67.1574 229.362 71.6654C229.362 76.1754 230.785 79.9013 233.627 82.8472C236.471 85.7911 240.208 87.265 244.838 87.265C249.509 87.265 253.278 85.7911 256.141 82.8472C259.005 79.9013 260.438 76.1754 260.438 71.6654C260.438 67.1966 258.985 63.4706 256.081 60.4836C253.176 57.4985 249.428 56.005 244.838 56.005L244.84 56.005ZM244.84 61.7948C247.521 61.7948 249.736 62.7592 251.482 64.6898C253.229 66.6204 254.103 68.9449 254.103 71.6654C254.103 74.429 253.26 76.7438 251.575 78.6116C249.889 80.4795 247.643 81.4144 244.842 81.4144C242.039 81.4144 239.805 80.4795 238.139 78.6116C236.473 76.7418 235.64 74.427 235.64 71.6654C235.64 68.9038 236.483 66.5674 238.168 64.6584C239.854 62.7494 242.078 61.7948 244.84 61.7948ZM288.225 78.5528C286.396 80.4227 284.02 81.3556 281.096 81.3556C278.374 81.3556 276.1 80.503 274.271 78.7959C272.443 77.0907 271.529 74.7132 271.529 71.6654C271.529 68.7411 272.445 66.3754 274.271 64.5663C276.1 62.7592 278.395 61.8556 281.157 61.8556C283.838 61.8556 286.092 62.7494 287.921 64.5369L291.943 60.3327C288.938 57.3672 285.322 55.8835 281.096 55.8835C276.547 55.8835 272.768 57.2653 269.761 60.0269C266.757 62.7886 265.253 66.6694 265.253 71.6654C265.253 76.6634 266.757 80.5422 269.761 83.3039C272.768 86.0655 276.545 87.4473 281.096 87.4473C285.524 87.4473 289.322 85.8832 292.491 82.7551L288.227 78.5509L288.225 78.5528ZM298.097 44.0647L298.097 86.6574L304.434 86.6574L304.434 72.765L317.291 86.6574L324.969 86.6574L324.969 86.2302L310.222 70.754L323.201 56.983L323.201 56.6165L315.584 56.6165L304.434 68.9253L304.434 44.0647L298.097 44.0647ZM364.455 47.0498C366.405 47.0498 368.142 47.4555 369.665 48.2689C371.187 49.0823 372.346 50.127 373.138 51.4068C373.929 52.6867 374.51 54.1077 374.874 55.6718C375.239 57.2359 375.239 58.7902 374.874 60.3327C374.508 61.8752 373.929 63.2884 373.138 64.5682C372.346 65.8481 371.187 66.8948 369.665 67.7062C368.142 68.5196 366.405 68.9253 364.455 68.9253L349.039 68.9253L349.039 47.0498L364.455 47.0498ZM364.455 71.9104C366.689 71.9104 368.71 71.5145 370.517 70.7226C372.324 69.9308 373.788 68.8744 374.906 67.5533C376.023 66.2323 376.875 64.7407 377.465 63.0747C378.053 61.4087 378.349 59.7035 378.349 57.9572C378.349 56.2108 378.055 54.5056 377.465 52.8396C376.875 51.1736 376.023 49.682 374.906 48.361C373.788 47.04 372.326 45.9835 370.517 45.1917C368.71 44.3998 366.689 44.0039 364.455 44.0039L345.749 44.0039L345.749 86.6574L349.039 86.6574L349.039 71.9104L364.455 71.9104ZM397.908 87.1435C402.255 87.1435 405.889 85.7421 408.815 82.9393C411.74 80.1365 413.202 76.3988 413.202 71.7281C413.202 67.0574 411.74 63.2786 408.815 60.3934C405.889 57.5083 402.255 56.0677 397.908 56.0677C393.561 56.0677 389.925 57.5103 387.001 60.3934C384.074 63.2786 382.612 67.0555 382.612 71.7281C382.612 76.3988 384.074 80.1365 387.001 82.9393C389.925 85.7421 393.561 87.1435 397.908 87.1435ZM397.908 84.2172C394.374 84.2172 391.428 83.0804 389.072 80.8049C386.717 78.5293 385.539 75.5031 385.539 71.7262C385.539 67.9081 386.726 64.8093 389.104 62.4338C391.479 60.0563 394.415 58.8686 397.908 58.8686C401.403 58.8686 404.337 60.0563 406.714 62.4338C409.09 64.8093 410.28 67.9081 410.28 71.7262C410.28 75.5031 409.102 78.5293 406.746 80.8049C404.39 83.0804 401.444 84.2172 397.91 84.2172L397.908 84.2172ZM442.755 60.0877C439.911 57.4064 436.173 56.0658 431.544 56.0658C428.212 56.0246 425.379 56.7263 423.043 58.1669C420.707 59.6094 419.56 61.7125 419.601 64.4742C419.601 65.6521 419.844 66.6772 420.332 67.5514C420.819 68.4255 421.377 69.1252 422.008 69.6525C422.637 70.1817 423.541 70.6482 424.719 71.0539C425.897 71.4596 426.912 71.7536 427.765 71.9378C428.617 72.1201 429.795 72.3338 431.299 72.5768C432.598 72.7806 433.594 72.9531 434.284 73.0942C434.974 73.2354 435.838 73.4608 436.875 73.7646C437.91 74.0703 438.682 74.4133 439.19 74.7994C439.697 75.1856 440.154 75.6932 440.562 76.3224C440.967 76.9535 441.15 77.6944 441.11 78.547C441.069 80.0091 440.491 81.1969 439.374 82.1122C438.257 83.0275 437.069 83.6155 435.809 83.8801C434.548 84.1447 433.188 84.276 431.726 84.276C429.572 84.276 427.49 83.8488 425.479 82.9962C423.468 82.1436 421.875 80.8637 420.695 79.1565L418.502 81.1067C419.762 83.0569 421.579 84.5504 423.955 85.5853C426.332 86.6222 428.902 87.1396 431.663 87.1396C433.655 87.1396 435.513 86.9162 437.237 86.4693C438.964 86.0224 440.518 85.1384 441.898 83.8194C443.28 82.4983 443.99 80.8029 444.031 78.7312C444.152 75.6854 442.812 73.4706 440.009 72.0888C438.547 71.3165 435.744 70.5854 431.6 69.8955C430.585 69.7328 429.905 69.6113 429.558 69.531C429.213 69.4506 428.574 69.2977 427.639 69.0743C426.704 68.8508 426.024 68.6274 425.599 68.404C425.172 68.1805 424.674 67.8767 424.105 67.4886C423.537 67.1025 423.122 66.6556 422.857 66.148C422.592 65.6404 422.461 65.0622 422.461 64.4114C422.42 62.5828 423.284 61.1931 425.05 60.2386C426.818 59.2841 428.982 58.8274 431.54 58.8666C435.399 58.8666 438.527 59.923 440.922 62.0359L442.751 60.0857L442.755 60.0877ZM473.284 60.0877C470.44 57.4064 466.704 56.0658 462.073 56.0658C458.741 56.0246 455.908 56.7263 453.572 58.1669C451.238 59.6094 450.089 61.7125 450.13 64.4742C450.13 65.6521 450.373 66.6772 450.861 67.5514C451.347 68.4255 451.906 69.1252 452.537 69.6525C453.166 70.1817 454.072 70.6482 455.248 71.0539C456.426 71.4596 457.441 71.7536 458.296 71.9378C459.148 72.1201 460.326 72.3338 461.83 72.5768C463.129 72.7806 464.125 72.9531 464.817 73.0942C465.507 73.2354 466.371 73.4608 467.406 73.7646C468.441 74.0703 469.213 74.4133 469.721 74.7994C470.228 75.1856 470.687 75.6932 471.093 76.3224C471.498 76.9535 471.682 77.6944 471.641 78.547C471.6 80.0091 471.022 81.1969 469.905 82.1122C468.788 83.0275 467.6 83.6155 466.34 83.8801C465.079 84.1447 463.719 84.276 462.257 84.276C460.105 84.276 458.021 83.8488 456.01 82.9962C453.999 82.1436 452.406 80.8637 451.228 79.1565L449.033 81.1067C450.293 83.0569 452.11 84.5504 454.487 85.5853C456.865 86.6222 459.433 87.1396 462.196 87.1396C464.187 87.1396 466.046 86.9162 467.772 86.4693C469.499 86.0224 471.051 85.1384 472.433 83.8194C473.815 82.4983 474.525 80.8029 474.566 78.7312C474.687 75.6854 473.347 73.4706 470.544 72.0888C469.082 71.3165 466.279 70.5854 462.135 69.8955C461.12 69.7328 460.44 69.6113 460.095 69.531C459.75 69.4506 459.109 69.2977 458.176 69.0743C457.241 68.8508 456.561 68.6274 456.134 68.404C455.707 68.1805 455.209 67.8767 454.64 67.4886C454.072 67.1025 453.656 66.6556 453.392 66.148C453.127 65.6404 452.996 65.0622 452.996 64.4114C452.955 62.5828 453.817 61.1931 455.585 60.2386C457.353 59.2841 459.517 58.8274 462.075 58.8666C465.934 58.8666 469.062 59.923 471.457 62.0359L473.286 60.0857L473.284 60.0877ZM485.105 56.4323L485.105 86.6555L482.118 86.6555L482.118 56.4323L485.105 56.4323ZM481.265 46.744C481.265 47.4751 481.52 48.0533 482.027 48.4806C482.535 48.9059 483.084 49.1195 483.672 49.1195C484.26 49.1195 484.809 48.9059 485.316 48.4806C485.824 48.0533 486.079 47.4751 486.079 46.744C486.079 46.0129 485.824 45.4327 485.316 45.0074C484.809 44.5801 484.26 44.3665 483.672 44.3665C483.084 44.3665 482.535 44.5801 482.027 45.0074C481.52 45.4327 481.265 46.0129 481.265 46.744ZM510.269 58.9293C513.844 58.9293 516.79 60.0269 519.105 62.2202C521.419 64.4134 522.578 67.5416 522.578 71.6046C522.578 75.6266 521.41 78.7332 519.075 80.9264C516.739 83.1196 513.805 84.2172 510.269 84.2172C506.694 84.2172 503.748 83.0393 501.433 80.6834C499.119 78.3274 497.96 75.2796 497.96 71.5439C497.96 67.8473 499.128 64.8211 501.463 62.4652C503.799 60.1092 506.733 58.9293 510.269 58.9293ZM494.973 44L494.973 86.6535L497.899 86.6535L497.899 80.0111C499.119 82.2455 500.865 83.9918 503.14 85.2521C505.416 86.5124 507.852 87.1416 510.453 87.1416C514.801 87.1416 518.395 85.7598 521.239 82.9981C524.083 80.2365 525.504 76.438 525.504 71.6046C525.504 66.7693 524.071 62.9708 521.208 60.2092C518.344 57.4476 514.738 56.0658 510.391 56.0658C507.668 56.0658 505.2 56.6557 502.988 57.8337C500.773 59.0116 499.077 60.7796 497.899 63.1355L497.899 44.0019L494.973 44.0019L494.973 44ZM536.41 56.4303L536.41 86.6535L533.422 86.6535L533.422 56.4303L536.41 56.4303ZM532.57 46.742C532.57 47.4731 532.825 48.0513 533.332 48.4786C533.84 48.9039 534.389 49.1175 534.977 49.1175C535.567 49.1175 536.116 48.9039 536.623 48.4786C537.131 48.0513 537.386 47.4731 537.386 46.742C537.386 46.0109 537.131 45.4308 536.623 45.0055C536.116 44.5782 535.567 44.3645 534.977 44.3645C534.389 44.3645 533.84 44.5782 533.332 45.0055C532.825 45.4308 532.57 46.0109 532.57 46.742ZM546.707 44L546.707 86.6535L549.692 86.6535L549.692 44L546.707 44ZM562.977 56.4303L562.977 86.6535L559.99 86.6535L559.99 56.4303L562.977 56.4303ZM559.138 46.742C559.138 47.4731 559.393 48.0513 559.9 48.4786C560.408 48.9039 560.957 49.1175 561.545 49.1175C562.135 49.1175 562.683 48.9039 563.191 48.4786C563.699 48.0513 563.953 47.4731 563.953 46.742C563.953 46.0109 563.699 45.4308 563.191 45.0055C562.683 44.5782 562.135 44.3645 561.545 44.3645C560.957 44.3645 560.408 44.5782 559.9 45.0055C559.393 45.4308 559.138 46.0109 559.138 46.742ZM576.321 47.7769L576.321 56.5518L569.924 56.5518L569.924 59.0508L576.321 59.0508L576.321 77.3906C576.321 80.5187 576.97 82.9158 578.271 84.5818C579.571 86.2478 581.744 87.0788 584.792 87.0788C586.458 87.0788 588.346 86.5712 590.458 85.5559L589.424 83.1177C587.718 83.9311 586.174 84.3368 584.792 84.3368C582.599 84.3368 581.125 83.7586 580.374 82.6002C579.622 81.4419 579.245 79.7053 579.245 77.3906L579.245 59.0508L589.482 59.0508L589.482 56.5518L579.245 56.5518L579.245 47.4731L576.321 47.7789L576.321 47.7769ZM598.745 56.4303L598.745 86.6535L595.76 86.6535L595.76 56.4303L598.745 56.4303ZM594.906 46.742C594.906 47.4731 595.161 48.0513 595.668 48.4786C596.176 48.9039 596.725 49.1175 597.313 49.1175C597.903 49.1175 598.449 48.9039 598.957 48.4786C599.465 48.0513 599.719 47.4731 599.719 46.742C599.719 46.0109 599.465 45.4308 598.957 45.0055C598.449 44.5782 597.901 44.3645 597.313 44.3645C596.725 44.3645 596.176 44.5782 595.668 45.0055C595.161 45.4308 594.906 46.0109 594.906 46.742ZM621.901 87.1416C624.419 87.1416 626.856 86.6437 629.212 85.65C631.568 84.6543 633.457 83.2216 634.878 81.3537L632.745 79.6485C631.65 81.0714 630.086 82.1867 628.053 83.0001C626.023 83.8135 623.971 84.2192 621.899 84.2192C618.69 84.2192 615.917 83.2039 613.581 81.1734C611.244 79.1428 609.935 76.4204 609.649 73.008L636.765 73.008C637.293 67.4827 636.105 63.2785 633.2 60.3954C630.295 57.5103 626.528 56.0697 621.897 56.0697C617.632 56.0697 614.016 57.5436 611.05 60.4875C608.085 63.4334 606.601 67.1397 606.601 71.6085C606.601 76.2792 608.063 80.0385 610.988 82.8805C613.914 85.7245 617.548 87.1455 621.895 87.1455L621.901 87.1416ZM609.653 70.3835C609.978 66.8085 611.297 63.9861 613.614 61.9144C615.929 59.8427 618.692 58.8058 621.901 58.8058C625.597 58.8058 628.543 59.8231 630.736 61.8536C632.93 63.8842 634.047 66.7281 634.086 70.3835L609.651 70.3835L609.653 70.3835ZM666.079 60.0857C663.235 57.4044 659.498 56.0638 654.868 56.0638C651.536 56.0226 648.704 56.7243 646.367 58.1649C644.031 59.6075 642.885 61.7106 642.924 64.4722C642.924 65.6502 643.167 66.6752 643.655 67.5494C644.143 68.4235 644.702 69.1233 645.331 69.6505C645.96 70.1797 646.863 70.6462 648.041 71.0519C649.219 71.4576 650.235 71.7516 651.087 71.9359C651.94 72.1182 653.118 72.3318 654.621 72.5748C655.921 72.7787 656.916 72.9511 657.606 73.0923C658.296 73.2334 659.16 73.4588 660.197 73.7626C661.232 74.0684 662.004 74.4114 662.512 74.7975C663.02 75.1836 663.476 75.6912 663.884 76.3204C664.29 76.9515 664.472 77.6924 664.433 78.545C664.392 80.0072 663.813 81.1949 662.696 82.1102C661.579 83.0256 660.391 83.6136 659.131 83.8782C657.871 84.1428 656.51 84.2741 655.048 84.2741C652.894 84.2741 650.813 83.8468 648.802 82.9942C646.791 82.1416 645.197 80.8617 644.017 79.1545L641.824 81.1048C643.084 83.055 644.901 84.5485 647.277 85.5834C649.654 86.6202 652.224 87.1376 654.986 87.1376C656.975 87.1376 658.835 86.9142 660.56 86.4673C662.287 86.0204 663.841 85.1365 665.221 83.8174C666.603 82.4964 667.312 80.801 667.353 78.7292C667.475 75.6834 666.134 73.4686 663.331 72.0868C661.869 71.3145 659.066 70.5835 654.923 69.8935C653.908 69.7309 653.227 69.6093 652.881 69.529C652.536 69.4486 651.897 69.2958 650.962 69.0723C650.027 68.8489 649.347 68.6254 648.921 68.402C648.494 68.1785 647.996 67.8747 647.428 67.4867C646.859 67.1005 646.444 66.6537 646.179 66.146C645.915 65.6384 645.783 65.0602 645.783 64.4095C645.742 62.5808 646.607 61.1911 648.373 60.2366C650.14 59.2821 652.302 58.8254 654.862 58.8646C658.721 58.8646 661.85 59.9211 664.245 62.0339L666.073 60.0837L666.079 60.0857Z" fill="#5D4D87"/>
<path fill-rule="evenodd" clip-rule="evenodd" d="M674.627 81.2556C676.318 81.2556 677.688 82.6257 677.688 84.3171C677.688 86.0067 676.318 87.3787 674.627 87.3787C672.935 87.3787 671.565 86.0067 671.565 84.3171C671.565 82.6257 672.935 81.2556 674.627 81.2556Z" fill="#2C1758" fill-opacity="0.23"/>
<defs>
<linearGradient id="paint0_linear_643_2" x1="823.124" y1="333.024" x2="1432.7" y2="333.024" gradientUnits="userSpaceOnUse">
<stop stop-color="#50407D"/>
<stop offset="1" stop-color="#AA92ED"/>
</linearGradient>
</defs>
</svg>
